M48
; DRILL file KiCad 10.0.1 date 2026-06-14T21:58:49
; FORMAT={-:-/ absolute / metric / decimal}
; #@! TF.CreationDate,2026-06-14T21:58:49+02:00
; #@! TF.GenerationSoftware,Kicad,Pcbnew,10.0.1
; #@! TF.FileFunction,Plated,1,2,PTH
FMAT,2
METRIC
; #@! TA.AperFunction,Plated,PTH,ViaDrill
T1C0.300
; #@! TA.AperFunction,Plated,PTH,ComponentDrill
T2C0.700
; #@! TA.AperFunction,Plated,PTH,ComponentDrill
T3C0.900
; #@! TA.AperFunction,Plated,PTH,ComponentDrill
T4C1.000
; #@! TA.AperFunction,Plated,PTH,ComponentDrill
T5C1.200
%
G90
G05
T1
X57.5Y-110.5
X58.0Y-86.5
X58.0Y-87.5
X58.0Y-104.5
X58.0Y-105.5
X59.0Y-86.5
X59.0Y-87.5
X59.0Y-104.5
X59.0Y-105.5
X61.05Y-133.5
X61.5Y-75.0
X61.5Y-76.0
X61.5Y-135.0
X61.5Y-136.0
X62.5Y-75.0
X62.5Y-76.0
X62.5Y-117.5
X62.5Y-118.5
X62.5Y-135.0
X62.5Y-136.0
X63.5Y-117.5
X63.5Y-118.5
X63.5Y-128.5
X64.73Y-103.5
X66.0Y-106.5
X67.05Y-133.5
X68.5Y-82.5
X68.5Y-99.0
X71.0Y-128.5
X73.05Y-133.5
X74.5Y-81.5
X74.5Y-82.5
X75.5Y-81.5
X75.5Y-82.5
X77.54Y-89.5
X78.5Y-128.5
X79.05Y-133.5
X80.08Y-87.5
X82.0Y-103.5
X82.0Y-104.5
X83.0Y-103.5
X83.0Y-104.5
X83.5Y-88.5
X83.5Y-98.537
X84.5Y-129.5
X85.05Y-133.5
X86.5Y-117.5
X86.5Y-118.5
X87.5Y-75.0
X87.5Y-76.0
X87.5Y-117.5
X87.5Y-118.5
X87.5Y-135.0
X87.5Y-136.0
X88.5Y-75.0
X88.5Y-76.0
X88.5Y-135.0
X88.5Y-136.0
X90.5Y-129.5
X93.0Y-91.5
X93.0Y-92.5
X94.0Y-91.5
X94.0Y-92.5
T2
X55.5Y-75.5
X68.5Y-75.5
X81.5Y-75.5
X94.5Y-75.5
T3
X57.73Y-125.5
X60.27Y-125.5
X65.73Y-125.5
X68.27Y-125.5
X73.73Y-125.5
X76.27Y-125.5
X81.73Y-125.5
X84.27Y-125.5
X89.73Y-125.5
X92.27Y-125.5
T4
X55.5Y-95.5
X55.5Y-98.04
X55.5Y-100.58
X55.5Y-103.12
X64.84Y-109.0
X67.38Y-109.0
X69.92Y-109.0
X69.92Y-119.5
X71.19Y-84.85
X72.46Y-109.0
X72.46Y-119.5
X73.73Y-84.85
X75.0Y-109.0
X75.0Y-119.5
X76.27Y-84.85
X77.54Y-109.0
X77.54Y-119.5
X78.81Y-84.85
X80.08Y-109.0
X80.08Y-119.5
X82.62Y-109.0
X85.16Y-109.0
T5
X59.5Y-69.25
X59.5Y-81.75
X64.5Y-69.25
X64.5Y-81.75
X85.5Y-69.25
X85.5Y-81.75
X90.5Y-69.25
X90.5Y-81.75
M30
