%TF.GenerationSoftware,KiCad,Pcbnew,10.0.1*%
%TF.CreationDate,2026-06-14T21:58:46+02:00*%
%TF.ProjectId,RPi5_ServerPi_v0.03,52506935-5f53-4657-9276-657250695f76,0.03*%
%TF.SameCoordinates,Original*%
%TF.FileFunction,Soldermask,Bot*%
%TF.FilePolarity,Negative*%
%FSLAX46Y46*%
G04 Gerber Fmt 4.6, Leading zero omitted, Abs format (unit mm)*
G04 Created by KiCad (PCBNEW 10.0.1) date 2026-06-14 21:58:46*
%MOMM*%
%LPD*%
G01*
G04 APERTURE LIST*
G04 Aperture macros list*
%AMRoundRect*
0 Rectangle with rounded corners*
0 $1 Rounding radius*
0 $2 $3 $4 $5 $6 $7 $8 $9 X,Y pos of 4 corners*
0 Add a 4 corners polygon primitive as box body*
4,1,4,$2,$3,$4,$5,$6,$7,$8,$9,$2,$3,0*
0 Add four circle primitives for the rounded corners*
1,1,$1+$1,$2,$3*
1,1,$1+$1,$4,$5*
1,1,$1+$1,$6,$7*
1,1,$1+$1,$8,$9*
0 Add four rect primitives between the rounded corners*
20,1,$1+$1,$2,$3,$4,$5,0*
20,1,$1+$1,$4,$5,$6,$7,0*
20,1,$1+$1,$6,$7,$8,$9,0*
20,1,$1+$1,$8,$9,$2,$3,0*%
G04 Aperture macros list end*
%ADD10R,1.800000X1.800000*%
%ADD11C,1.800000*%
%ADD12C,3.200000*%
%ADD13O,2.200000X2.800000*%
%ADD14O,1.500000X2.000000*%
%ADD15RoundRect,0.170000X-0.780000X-0.680000X0.780000X-0.680000X0.780000X0.680000X-0.780000X0.680000X0*%
%ADD16C,1.900000*%
%ADD17RoundRect,0.250000X-0.450000X0.350000X-0.450000X-0.350000X0.450000X-0.350000X0.450000X0.350000X0*%
%ADD18RoundRect,0.279412X0.670588X0.820588X-0.670588X0.820588X-0.670588X-0.820588X0.670588X-0.820588X0*%
%ADD19O,1.900000X2.200000*%
%ADD20RoundRect,0.250000X-0.350000X-0.450000X0.350000X-0.450000X0.350000X0.450000X-0.350000X0.450000X0*%
%ADD21RoundRect,0.150000X0.150000X-0.587500X0.150000X0.587500X-0.150000X0.587500X-0.150000X-0.587500X0*%
%ADD22RoundRect,0.250000X0.475000X-0.337500X0.475000X0.337500X-0.475000X0.337500X-0.475000X-0.337500X0*%
%ADD23RoundRect,0.250000X0.450000X-0.350000X0.450000X0.350000X-0.450000X0.350000X-0.450000X-0.350000X0*%
%ADD24RoundRect,0.250000X0.350000X0.450000X-0.350000X0.450000X-0.350000X-0.450000X0.350000X-0.450000X0*%
%ADD25RoundRect,0.250000X-0.450000X0.325000X-0.450000X-0.325000X0.450000X-0.325000X0.450000X0.325000X0*%
%ADD26RoundRect,0.150000X-0.150000X0.587500X-0.150000X-0.587500X0.150000X-0.587500X0.150000X0.587500X0*%
%ADD27R,1.700000X1.700000*%
%ADD28C,1.700000*%
%ADD29RoundRect,0.150000X0.150000X-0.825000X0.150000X0.825000X-0.150000X0.825000X-0.150000X-0.825000X0*%
G04 APERTURE END LIST*
D10*
%TO.C,D3*%
X73730000Y-125500000D03*
D11*
X76270000Y-125500000D03*
%TD*%
D12*
%TO.C,H4*%
X93500000Y-65500000D03*
%TD*%
D10*
%TO.C,D1*%
X57730000Y-125500000D03*
D11*
X60270000Y-125500000D03*
%TD*%
%TO.C,SW2*%
X83500000Y-75500000D03*
X92500000Y-75500000D03*
D13*
X85500000Y-81750000D03*
X85500000Y-69250000D03*
X90500000Y-81750000D03*
X90500000Y-69250000D03*
D14*
X81500000Y-75500000D03*
X94500000Y-75500000D03*
%TD*%
D15*
%TO.C,DS1*%
X71190000Y-84850000D03*
D16*
X73730000Y-84850000D03*
X76270000Y-84850000D03*
X78810000Y-84850000D03*
%TD*%
D10*
%TO.C,D4*%
X81730000Y-125500000D03*
D11*
X84270000Y-125500000D03*
%TD*%
D10*
%TO.C,D5*%
X89730000Y-125500000D03*
D11*
X92270000Y-125500000D03*
%TD*%
D12*
%TO.C,H3*%
X93500000Y-134500000D03*
%TD*%
D10*
%TO.C,D2*%
X65730000Y-125500000D03*
D11*
X68270000Y-125500000D03*
%TD*%
D12*
%TO.C,H1*%
X56500000Y-65500000D03*
%TD*%
D11*
%TO.C,SW1*%
X57500000Y-75500000D03*
X66500000Y-75500000D03*
D13*
X59500000Y-81750000D03*
X59500000Y-69250000D03*
X64500000Y-81750000D03*
X64500000Y-69250000D03*
D14*
X55500000Y-75500000D03*
X68500000Y-75500000D03*
%TD*%
D12*
%TO.C,H2*%
X56500000Y-134500000D03*
%TD*%
D17*
%TO.C,R16*%
X57500000Y-112500000D03*
X57500000Y-114500000D03*
%TD*%
%TO.C,R10*%
X89000000Y-130000000D03*
X89000000Y-132000000D03*
%TD*%
D18*
%TO.C,J1*%
X85160000Y-109000000D03*
D19*
X82620000Y-109000000D03*
X80080000Y-109000000D03*
X77540000Y-109000000D03*
X75000000Y-109000000D03*
X72460000Y-109000000D03*
X69920000Y-109000000D03*
X67380000Y-109000000D03*
X64840000Y-109000000D03*
%TD*%
D17*
%TO.C,R6*%
X65000000Y-130000000D03*
X65000000Y-132000000D03*
%TD*%
D20*
%TO.C,R14*%
X81000000Y-128000000D03*
X83000000Y-128000000D03*
%TD*%
D21*
%TO.C,Q1*%
X62950000Y-131937500D03*
X61050000Y-131937500D03*
X62000000Y-130062500D03*
%TD*%
D17*
%TO.C,R7*%
X71000000Y-130000000D03*
X71000000Y-132000000D03*
%TD*%
D22*
%TO.C,C2*%
X92500000Y-98537500D03*
X92500000Y-96462500D03*
%TD*%
%TO.C,C3*%
X72500000Y-100037500D03*
X72500000Y-97962500D03*
%TD*%
D23*
%TO.C,R5*%
X94500000Y-80500000D03*
X94500000Y-78500000D03*
%TD*%
D20*
%TO.C,R12*%
X67000000Y-128000000D03*
X69000000Y-128000000D03*
%TD*%
D18*
%TO.C,J3*%
X80080000Y-119500000D03*
D19*
X77540000Y-119500000D03*
X75000000Y-119500000D03*
X72460000Y-119500000D03*
X69920000Y-119500000D03*
%TD*%
D20*
%TO.C,R13*%
X74000000Y-128000000D03*
X76000000Y-128000000D03*
%TD*%
D21*
%TO.C,Q3*%
X74950000Y-131937500D03*
X73050000Y-131937500D03*
X74000000Y-130062500D03*
%TD*%
D24*
%TO.C,R3*%
X83500000Y-87500000D03*
X81500000Y-87500000D03*
%TD*%
D20*
%TO.C,R15*%
X88000000Y-128000000D03*
X90000000Y-128000000D03*
%TD*%
D17*
%TO.C,R1*%
X68500000Y-78500000D03*
X68500000Y-80500000D03*
%TD*%
D21*
%TO.C,Q5*%
X86950000Y-131937500D03*
X85050000Y-131937500D03*
X86000000Y-130062500D03*
%TD*%
D24*
%TO.C,R2*%
X83500000Y-89500000D03*
X81500000Y-89500000D03*
%TD*%
D25*
%TO.C,F1*%
X91500000Y-109975000D03*
X91500000Y-112025000D03*
%TD*%
D17*
%TO.C,R9*%
X83000000Y-130000000D03*
X83000000Y-132000000D03*
%TD*%
D26*
%TO.C,U1*%
X90550000Y-102562500D03*
X92450000Y-102562500D03*
X91500000Y-104437500D03*
%TD*%
D17*
%TO.C,R8*%
X77000000Y-130000000D03*
X77000000Y-132000000D03*
%TD*%
D21*
%TO.C,Q4*%
X80950000Y-131937500D03*
X79050000Y-131937500D03*
X80000000Y-130062500D03*
%TD*%
D26*
%TO.C,Q6*%
X57550000Y-118062500D03*
X59450000Y-118062500D03*
X58500000Y-119937500D03*
%TD*%
D20*
%TO.C,R4*%
X75000000Y-102000000D03*
X77000000Y-102000000D03*
%TD*%
D22*
%TO.C,C1*%
X88000000Y-104537500D03*
X88000000Y-102462500D03*
%TD*%
D24*
%TO.C,R11*%
X62000000Y-128000000D03*
X60000000Y-128000000D03*
%TD*%
D27*
%TO.C,J2*%
X55500000Y-95500000D03*
D28*
X55500000Y-98040000D03*
X55500000Y-100580000D03*
X55500000Y-103120000D03*
%TD*%
D21*
%TO.C,Q2*%
X68950000Y-131937500D03*
X67050000Y-131937500D03*
X68000000Y-130062500D03*
%TD*%
D29*
%TO.C,U2*%
X69810000Y-101475000D03*
X68540000Y-101475000D03*
X67270000Y-101475000D03*
X66000000Y-101475000D03*
X64730000Y-101475000D03*
X63460000Y-101475000D03*
X62190000Y-101475000D03*
X62190000Y-96525000D03*
X63460000Y-96525000D03*
X64730000Y-96525000D03*
X66000000Y-96525000D03*
X67270000Y-96525000D03*
X68540000Y-96525000D03*
X69810000Y-96525000D03*
%TD*%
M02*
