%TF.GenerationSoftware,KiCad,Pcbnew,10.0.1*%
%TF.CreationDate,2026-06-14T21:58:46+02:00*%
%TF.ProjectId,RPi5_ServerPi_v0.03,52506935-5f53-4657-9276-657250695f76,0.03*%
%TF.SameCoordinates,Original*%
%TF.FileFunction,Copper,L1,Top*%
%TF.FilePolarity,Positive*%
%FSLAX46Y46*%
G04 Gerber Fmt 4.6, Leading zero omitted, Abs format (unit mm)*
G04 Created by KiCad (PCBNEW 10.0.1) date 2026-06-14 21:58:46*
%MOMM*%
%LPD*%
G01*
G04 APERTURE LIST*
G04 Aperture macros list*
%AMRoundRect*
0 Rectangle with rounded corners*
0 $1 Rounding radius*
0 $2 $3 $4 $5 $6 $7 $8 $9 X,Y pos of 4 corners*
0 Add a 4 corners polygon primitive as box body*
4,1,4,$2,$3,$4,$5,$6,$7,$8,$9,$2,$3,0*
0 Add four circle primitives for the rounded corners*
1,1,$1+$1,$2,$3*
1,1,$1+$1,$4,$5*
1,1,$1+$1,$6,$7*
1,1,$1+$1,$8,$9*
0 Add four rect primitives between the rounded corners*
20,1,$1+$1,$2,$3,$4,$5,0*
20,1,$1+$1,$4,$5,$6,$7,0*
20,1,$1+$1,$6,$7,$8,$9,0*
20,1,$1+$1,$8,$9,$2,$3,0*%
G04 Aperture macros list end*
%TA.AperFunction,ComponentPad*%
%ADD10R,1.800000X1.800000*%
%TD*%
%TA.AperFunction,ComponentPad*%
%ADD11C,1.800000*%
%TD*%
%TA.AperFunction,ComponentPad*%
%ADD12O,2.200000X2.800000*%
%TD*%
%TA.AperFunction,ComponentPad*%
%ADD13O,1.500000X2.000000*%
%TD*%
%TA.AperFunction,ComponentPad*%
%ADD14RoundRect,0.170000X-0.780000X-0.680000X0.780000X-0.680000X0.780000X0.680000X-0.780000X0.680000X0*%
%TD*%
%TA.AperFunction,ComponentPad*%
%ADD15C,1.900000*%
%TD*%
%TA.AperFunction,ComponentPad*%
%ADD16RoundRect,0.279412X0.670588X0.820588X-0.670588X0.820588X-0.670588X-0.820588X0.670588X-0.820588X0*%
%TD*%
%TA.AperFunction,ComponentPad*%
%ADD17O,1.900000X2.200000*%
%TD*%
%TA.AperFunction,ComponentPad*%
%ADD18R,1.700000X1.700000*%
%TD*%
%TA.AperFunction,ComponentPad*%
%ADD19C,1.700000*%
%TD*%
%TA.AperFunction,ViaPad*%
%ADD20C,0.600000*%
%TD*%
%TA.AperFunction,Conductor*%
%ADD21C,1.900000*%
%TD*%
%TA.AperFunction,Conductor*%
%ADD22C,0.700000*%
%TD*%
%TA.AperFunction,Conductor*%
%ADD23C,0.900000*%
%TD*%
%TA.AperFunction,Conductor*%
%ADD24C,0.500000*%
%TD*%
G04 APERTURE END LIST*
D10*
%TO.P,D3,1,K_1*%
%TO.N,Net-(D1-K)*%
X73730000Y-125500000D03*
D11*
%TO.P,D3,2,A_2*%
%TO.N,Net-(D3-A)*%
X76270000Y-125500000D03*
%TD*%
D10*
%TO.P,D1,1,K_1*%
%TO.N,Net-(D1-K)*%
X57730000Y-125500000D03*
D11*
%TO.P,D1,2,A_2*%
%TO.N,Net-(D1-A)*%
X60270000Y-125500000D03*
%TD*%
D12*
%TO.P,SW2,1,1_1*%
%TO.N,GND*%
X85500000Y-81750000D03*
X85500000Y-69250000D03*
%TO.P,SW2,2,2_2*%
%TO.N,Net-(U2-PA2)*%
X90500000Y-81750000D03*
X90500000Y-69250000D03*
D13*
%TO.P,SW2,3,K_3*%
%TO.N,GND*%
X81500000Y-75500000D03*
%TO.P,SW2,4,A_4*%
%TO.N,Net-(SW2-A)*%
X94500000Y-75500000D03*
%TD*%
D14*
%TO.P,DS1,1,GND_1*%
%TO.N,GND*%
X71190000Y-84850000D03*
D15*
%TO.P,DS1,2,VCC_2*%
%TO.N,/Power (RPi 3.3V Rail)*%
X73730000Y-84850000D03*
%TO.P,DS1,3,SCL_3*%
%TO.N,/SCL*%
X76270000Y-84850000D03*
%TO.P,DS1,4,SDA_4*%
%TO.N,/SDA*%
X78810000Y-84850000D03*
%TD*%
D10*
%TO.P,D4,1,K_1*%
%TO.N,Net-(D1-K)*%
X81730000Y-125500000D03*
D11*
%TO.P,D4,2,A_2*%
%TO.N,Net-(D4-A)*%
X84270000Y-125500000D03*
%TD*%
D10*
%TO.P,D5,1,K_1*%
%TO.N,Net-(D1-K)*%
X89730000Y-125500000D03*
D11*
%TO.P,D5,2,A_2*%
%TO.N,Net-(D5-A)*%
X92270000Y-125500000D03*
%TD*%
D10*
%TO.P,D2,1,K_1*%
%TO.N,Net-(D1-K)*%
X65730000Y-125500000D03*
D11*
%TO.P,D2,2,A_2*%
%TO.N,Net-(D2-A)*%
X68270000Y-125500000D03*
%TD*%
D12*
%TO.P,SW1,1,1_1*%
%TO.N,GND*%
X59500000Y-81750000D03*
X59500000Y-69250000D03*
%TO.P,SW1,2,2_2*%
%TO.N,Net-(J1-Pin_7)*%
X64500000Y-81750000D03*
X64500000Y-69250000D03*
D13*
%TO.P,SW1,3,K_3*%
%TO.N,GND*%
X55500000Y-75500000D03*
%TO.P,SW1,4,A_4*%
%TO.N,Net-(SW1-A)*%
X68500000Y-75500000D03*
%TD*%
D16*
%TO.P,J1,1,Pin_1_1*%
%TO.N,Net-(J1-Pin_1)*%
X85160000Y-109000000D03*
D17*
%TO.P,J1,2,Pin_2_2*%
%TO.N,GND*%
X82620000Y-109000000D03*
%TO.P,J1,3,Pin_3_3*%
%TO.N,/SDA*%
X80080000Y-109000000D03*
%TO.P,J1,4,Pin_4_4*%
%TO.N,/SCL*%
X77540000Y-109000000D03*
%TO.P,J1,5,Pin_5_5*%
%TO.N,/Power (RPi 3.3V Rail)*%
X75000000Y-109000000D03*
%TO.P,J1,6,Pin_6_6*%
%TO.N,Net-(J1-Pin_6)*%
X72460000Y-109000000D03*
%TO.P,J1,7,Pin_7_7*%
%TO.N,Net-(J1-Pin_7)*%
X69920000Y-109000000D03*
%TO.P,J1,8,Pin_8_8*%
%TO.N,/Other-Button (RPi)*%
X67380000Y-109000000D03*
%TO.P,J1,9,Pin_9_9*%
%TO.N,/Power-Button (RPi)*%
X64840000Y-109000000D03*
%TD*%
D16*
%TO.P,J3,1,Pin_1_1*%
%TO.N,Net-(J3-Pin_1)*%
X80080000Y-119500000D03*
D17*
%TO.P,J3,2,Pin_2_2*%
%TO.N,Net-(J3-Pin_2)*%
X77540000Y-119500000D03*
%TO.P,J3,3,Pin_3_3*%
%TO.N,Net-(J3-Pin_3)*%
X75000000Y-119500000D03*
%TO.P,J3,4,Pin_4_4*%
%TO.N,Net-(J3-Pin_4)*%
X72460000Y-119500000D03*
%TO.P,J3,5,Pin_5_5*%
%TO.N,Net-(J3-Pin_5)*%
X69920000Y-119500000D03*
%TD*%
D18*
%TO.P,J2,1,Pin_1_1*%
%TO.N,GND*%
X55500000Y-95500000D03*
D19*
%TO.P,J2,2,Pin_2_2*%
%TO.N,/UPDI*%
X55500000Y-98040000D03*
%TO.P,J2,3,Pin_3_3*%
%TO.N,/TXD*%
X55500000Y-100580000D03*
%TO.P,J2,4,Pin_4_4*%
%TO.N,+3.3V (ATtiny)*%
X55500000Y-103120000D03*
%TD*%
D20*
%TO.N,GND*%
X58000000Y-87500000D03*
X63500000Y-118500000D03*
X59000000Y-86500000D03*
X94000000Y-91500000D03*
X82000000Y-104500000D03*
X62500000Y-135000000D03*
X62500000Y-136000000D03*
X87500000Y-117500000D03*
X88500000Y-135000000D03*
X93000000Y-91500000D03*
X87500000Y-118500000D03*
X62500000Y-117500000D03*
X94000000Y-92500000D03*
X87500000Y-135000000D03*
X86500000Y-117500000D03*
X87500000Y-136000000D03*
X63500000Y-117500000D03*
X86500000Y-118500000D03*
X59000000Y-105500000D03*
X83000000Y-104500000D03*
X88500000Y-75000000D03*
X83000000Y-103500000D03*
X61500000Y-135000000D03*
X58000000Y-105500000D03*
X61500000Y-76000000D03*
X58000000Y-86500000D03*
X88500000Y-76000000D03*
X58000000Y-104500000D03*
X88500000Y-136000000D03*
X61500000Y-75000000D03*
X75500000Y-82500000D03*
X61500000Y-136000000D03*
X74500000Y-81500000D03*
X62500000Y-118500000D03*
X59000000Y-87500000D03*
X59000000Y-104500000D03*
X87500000Y-76000000D03*
X82000000Y-103500000D03*
X74500000Y-82500000D03*
X62500000Y-76000000D03*
X62500000Y-75000000D03*
X93000000Y-92500000D03*
X75500000Y-81500000D03*
X87500000Y-75000000D03*
%TO.N,/Power (RPi 3.3V Rail)*%
X67050000Y-133500000D03*
X73050000Y-133500000D03*
X85050000Y-133500000D03*
X61050000Y-133500000D03*
X79050000Y-133500000D03*
%TO.N,/SCL*%
X77540000Y-89500000D03*
%TO.N,/SDA*%
X80080000Y-87500000D03*
%TO.N,Net-(J3-Pin_1)*%
X90500000Y-129500000D03*
%TO.N,Net-(J1-Pin_6)*%
X68500000Y-82500000D03*
%TO.N,/Other-Button (RPi)*%
X64730000Y-103500000D03*
%TO.N,Net-(J3-Pin_5)*%
X63500000Y-128500000D03*
%TO.N,Net-(J3-Pin_4)*%
X71000000Y-128500000D03*
%TO.N,+3.3V (ATtiny)*%
X83500000Y-98537500D03*
X83500000Y-88500000D03*
X68500000Y-99000000D03*
%TO.N,Net-(J3-Pin_2)*%
X84500000Y-129500000D03*
%TO.N,Net-(J3-Pin_3)*%
X78500000Y-128500000D03*
%TO.N,Net-(U2-PA5)*%
X57500000Y-110500000D03*
X66000000Y-106500000D03*
%TD*%
%TO.N,GND*%
D21*
X82620000Y-110500000D02*
X82620000Y-107500000D01*
%TO.N,/Power (RPi 3.3V Rail)*%
D22*
X75000000Y-86120000D02*
X73730000Y-84850000D01*
X55000000Y-121000000D02*
X55000000Y-127500000D01*
D23*
X73050000Y-133450000D02*
X73000000Y-133500000D01*
D22*
X75000000Y-109000000D02*
X75000000Y-111500000D01*
X55000000Y-127500000D02*
X61000000Y-133500000D01*
X61050000Y-133500000D02*
X67050000Y-133500000D01*
X73000000Y-133500000D02*
X67050000Y-133500000D01*
X72500000Y-114000000D02*
X62000000Y-114000000D01*
X73100000Y-133500000D02*
X79050000Y-133500000D01*
X79050000Y-133500000D02*
X85050000Y-133500000D01*
X62000000Y-114000000D02*
X55000000Y-121000000D01*
X75000000Y-111500000D02*
X72500000Y-114000000D01*
X75000000Y-109000000D02*
X75000000Y-86120000D01*
D24*
X61050000Y-133500000D02*
X61000000Y-133500000D01*
D23*
X73050000Y-133450000D02*
X73100000Y-133500000D01*
%TO.N,/SCL*%
D24*
X77540000Y-109000000D02*
X77540000Y-86120000D01*
X77540000Y-86120000D02*
X76270000Y-84850000D01*
%TO.N,/SDA*%
X78810000Y-84850000D02*
X80080000Y-86120000D01*
X80080000Y-86120000D02*
X80080000Y-109000000D01*
%TO.N,Net-(J1-Pin_7)*%
X64500000Y-69250000D02*
X64500000Y-81750000D01*
X64500000Y-81750000D02*
X64500000Y-87000000D01*
X64500000Y-87000000D02*
X69920000Y-92420000D01*
X69920000Y-92420000D02*
X69920000Y-109000000D01*
%TO.N,Net-(J3-Pin_1)*%
X87000000Y-124500000D02*
X82000000Y-119500000D01*
X88500000Y-129500000D02*
X87000000Y-128000000D01*
X87000000Y-128000000D02*
X87000000Y-124500000D01*
X90500000Y-129500000D02*
X88500000Y-129500000D01*
X82000000Y-119500000D02*
X80080000Y-119500000D01*
%TO.N,Net-(J1-Pin_6)*%
X68500000Y-82500000D02*
X68500000Y-87000000D01*
X68500000Y-87000000D02*
X72460000Y-90960000D01*
X72460000Y-90960000D02*
X72460000Y-109000000D01*
%TO.N,Net-(J3-Pin_5)*%
X63500000Y-128500000D02*
X63500000Y-123000000D01*
X63500000Y-123000000D02*
X67000000Y-119500000D01*
X67000000Y-119500000D02*
X69920000Y-119500000D01*
%TO.N,Net-(J3-Pin_4)*%
X71000000Y-128500000D02*
X71000000Y-122250000D01*
X72460000Y-120790000D02*
X72460000Y-119500000D01*
X71000000Y-122250000D02*
X72460000Y-120790000D01*
%TO.N,+3.3V (ATtiny)*%
D22*
X56380000Y-103120000D02*
X55500000Y-103120000D01*
X60500000Y-99000000D02*
X56380000Y-103120000D01*
D24*
X83500000Y-88500000D02*
X83500000Y-98537500D01*
D22*
X68500000Y-99000000D02*
X60500000Y-99000000D01*
%TO.N,Net-(J3-Pin_2)*%
D24*
X82500000Y-129500000D02*
X79500000Y-126500000D01*
X79500000Y-123000000D02*
X77540000Y-121040000D01*
X79500000Y-126500000D02*
X79500000Y-123000000D01*
X84500000Y-129500000D02*
X82500000Y-129500000D01*
X77540000Y-121040000D02*
X77540000Y-119500000D01*
%TO.N,Net-(J3-Pin_3)*%
X78500000Y-128500000D02*
X78500000Y-124500000D01*
X78500000Y-124500000D02*
X75000000Y-121000000D01*
X75000000Y-121000000D02*
X75000000Y-119500000D01*
%TO.N,Net-(U2-PA5)*%
X66000000Y-106500000D02*
X61500000Y-106500000D01*
X61500000Y-106500000D02*
X57500000Y-110500000D01*
%TO.N,/Other-Button (RPi)*%
X67380000Y-106150000D02*
X67380000Y-109000000D01*
X64730000Y-103500000D02*
X67380000Y-106150000D01*
%TD*%
%TA.AperFunction,Conductor*%
%TO.N,GND*%
G36*
X96442539Y-62520185D02*
G01*
X96488294Y-62572989D01*
X96499500Y-62624500D01*
X96499500Y-137375500D01*
X96479815Y-137442539D01*
X96427011Y-137488294D01*
X96375500Y-137499500D01*
X53624500Y-137499500D01*
X53557461Y-137479815D01*
X53511706Y-137427011D01*
X53500500Y-137375500D01*
X53500500Y-134362332D01*
X54399500Y-134362332D01*
X54399500Y-134637667D01*
X54399501Y-134637684D01*
X54435438Y-134910655D01*
X54435439Y-134910660D01*
X54435440Y-134910666D01*
X54435441Y-134910668D01*
X54506704Y-135176630D01*
X54612075Y-135431017D01*
X54612080Y-135431028D01*
X54694861Y-135574407D01*
X54749751Y-135669479D01*
X54749753Y-135669482D01*
X54749754Y-135669483D01*
X54917370Y-135887926D01*
X54917376Y-135887933D01*
X55112066Y-136082623D01*
X55112072Y-136082628D01*
X55330521Y-136250249D01*
X55483778Y-136338732D01*
X55568971Y-136387919D01*
X55568976Y-136387921D01*
X55568979Y-136387923D01*
X55823368Y-136493295D01*
X56089334Y-136564560D01*
X56362326Y-136600500D01*
X56362333Y-136600500D01*
X56637667Y-136600500D01*
X56637674Y-136600500D01*
X56910666Y-136564560D01*
X57176632Y-136493295D01*
X57431021Y-136387923D01*
X57669479Y-136250249D01*
X57887928Y-136082628D01*
X58082628Y-135887928D01*
X58250249Y-135669479D01*
X58387923Y-135431021D01*
X58493295Y-135176632D01*
X58564560Y-134910666D01*
X58600500Y-134637674D01*
X58600500Y-134362332D01*
X91399500Y-134362332D01*
X91399500Y-134637667D01*
X91399501Y-134637684D01*
X91435438Y-134910655D01*
X91435439Y-134910660D01*
X91435440Y-134910666D01*
X91435441Y-134910668D01*
X91506704Y-135176630D01*
X91612075Y-135431017D01*
X91612080Y-135431028D01*
X91694861Y-135574407D01*
X91749751Y-135669479D01*
X91749753Y-135669482D01*
X91749754Y-135669483D01*
X91917370Y-135887926D01*
X91917376Y-135887933D01*
X92112066Y-136082623D01*
X92112072Y-136082628D01*
X92330521Y-136250249D01*
X92483778Y-136338732D01*
X92568971Y-136387919D01*
X92568976Y-136387921D01*
X92568979Y-136387923D01*
X92823368Y-136493295D01*
X93089334Y-136564560D01*
X93362326Y-136600500D01*
X93362333Y-136600500D01*
X93637667Y-136600500D01*
X93637674Y-136600500D01*
X93910666Y-136564560D01*
X94176632Y-136493295D01*
X94431021Y-136387923D01*
X94669479Y-136250249D01*
X94887928Y-136082628D01*
X95082628Y-135887928D01*
X95250249Y-135669479D01*
X95387923Y-135431021D01*
X95493295Y-135176632D01*
X95564560Y-134910666D01*
X95600500Y-134637674D01*
X95600500Y-134362326D01*
X95564560Y-134089334D01*
X95493295Y-133823368D01*
X95387923Y-133568979D01*
X95387921Y-133568976D01*
X95387919Y-133568971D01*
X95305421Y-133426082D01*
X95250249Y-133330521D01*
X95082628Y-133112072D01*
X95082623Y-133112066D01*
X94887933Y-132917376D01*
X94887926Y-132917370D01*
X94669483Y-132749754D01*
X94669482Y-132749753D01*
X94669479Y-132749751D01*
X94574407Y-132694861D01*
X94431028Y-132612080D01*
X94431017Y-132612075D01*
X94176630Y-132506704D01*
X94043649Y-132471072D01*
X93910666Y-132435440D01*
X93910660Y-132435439D01*
X93910655Y-132435438D01*
X93637684Y-132399501D01*
X93637679Y-132399500D01*
X93637674Y-132399500D01*
X93362326Y-132399500D01*
X93362320Y-132399500D01*
X93362315Y-132399501D01*
X93089344Y-132435438D01*
X93089337Y-132435439D01*
X93089334Y-132435440D01*
X93033125Y-132450500D01*
X92823369Y-132506704D01*
X92568982Y-132612075D01*
X92568971Y-132612080D01*
X92367154Y-132728601D01*
X92330991Y-132749480D01*
X92330516Y-132749754D01*
X92112073Y-132917370D01*
X92112066Y-132917376D01*
X91917376Y-133112066D01*
X91917370Y-133112073D01*
X91749754Y-133330516D01*
X91612080Y-133568971D01*
X91612075Y-133568982D01*
X91506704Y-133823369D01*
X91435441Y-134089331D01*
X91435438Y-134089344D01*
X91399501Y-134362315D01*
X91399500Y-134362332D01*
X58600500Y-134362332D01*
X58600500Y-134362326D01*
X58564560Y-134089334D01*
X58493295Y-133823368D01*
X58387923Y-133568979D01*
X58387921Y-133568976D01*
X58387919Y-133568971D01*
X58305421Y-133426082D01*
X58250249Y-133330521D01*
X58082628Y-133112072D01*
X58082623Y-133112066D01*
X57887933Y-132917376D01*
X57887926Y-132917370D01*
X57669483Y-132749754D01*
X57669482Y-132749753D01*
X57669479Y-132749751D01*
X57574407Y-132694861D01*
X57431028Y-132612080D01*
X57431017Y-132612075D01*
X57176630Y-132506704D01*
X57043649Y-132471072D01*
X56910666Y-132435440D01*
X56910660Y-132435439D01*
X56910655Y-132435438D01*
X56637684Y-132399501D01*
X56637679Y-132399500D01*
X56637674Y-132399500D01*
X56362326Y-132399500D01*
X56362320Y-132399500D01*
X56362315Y-132399501D01*
X56089344Y-132435438D01*
X56089337Y-132435439D01*
X56089334Y-132435440D01*
X56033125Y-132450500D01*
X55823369Y-132506704D01*
X55568982Y-132612075D01*
X55568971Y-132612080D01*
X55367154Y-132728601D01*
X55330991Y-132749480D01*
X55330516Y-132749754D01*
X55112073Y-132917370D01*
X55112066Y-132917376D01*
X54917376Y-133112066D01*
X54917370Y-133112073D01*
X54749754Y-133330516D01*
X54612080Y-133568971D01*
X54612075Y-133568982D01*
X54506704Y-133823369D01*
X54435441Y-134089331D01*
X54435438Y-134089344D01*
X54399501Y-134362315D01*
X54399500Y-134362332D01*
X53500500Y-134362332D01*
X53500500Y-127573920D01*
X54249499Y-127573920D01*
X54278340Y-127718907D01*
X54278343Y-127718917D01*
X54334913Y-127855489D01*
X54334914Y-127855491D01*
X54334916Y-127855495D01*
X54347613Y-127874498D01*
X54347614Y-127874501D01*
X54417046Y-127978414D01*
X54417052Y-127978421D01*
X60521580Y-134082948D01*
X60521584Y-134082951D01*
X60644498Y-134165080D01*
X60644511Y-134165087D01*
X60781082Y-134221656D01*
X60781087Y-134221658D01*
X60781091Y-134221658D01*
X60781092Y-134221659D01*
X60926079Y-134250500D01*
X60926082Y-134250500D01*
X60976082Y-134250500D01*
X66976082Y-134250500D01*
X72564737Y-134250500D01*
X72612189Y-134259939D01*
X72704646Y-134298235D01*
X72751919Y-134317816D01*
X72751921Y-134317816D01*
X72751926Y-134317818D01*
X72916228Y-134350499D01*
X72916232Y-134350500D01*
X72916233Y-134350500D01*
X73183768Y-134350500D01*
X73183769Y-134350499D01*
X73238538Y-134339605D01*
X73348074Y-134317818D01*
X73348077Y-134317816D01*
X73348082Y-134317816D01*
X73440977Y-134279337D01*
X73487811Y-134259939D01*
X73535263Y-134250500D01*
X85123920Y-134250500D01*
X85193547Y-134236650D01*
X85244582Y-134226497D01*
X85268913Y-134221658D01*
X85405495Y-134165084D01*
X85528416Y-134082951D01*
X85632951Y-133978416D01*
X85715084Y-133855495D01*
X85771658Y-133718913D01*
X85800500Y-133573918D01*
X85800500Y-133426082D01*
X85800500Y-133426079D01*
X85771659Y-133281092D01*
X85771658Y-133281091D01*
X85771658Y-133281087D01*
X85771656Y-133281082D01*
X85715087Y-133144511D01*
X85715080Y-133144498D01*
X85632951Y-133021584D01*
X85632948Y-133021580D01*
X85528419Y-132917051D01*
X85528415Y-132917048D01*
X85405501Y-132834919D01*
X85405488Y-132834912D01*
X85268917Y-132778343D01*
X85268907Y-132778340D01*
X85123920Y-132749500D01*
X85123918Y-132749500D01*
X79123918Y-132749500D01*
X73570103Y-132749500D01*
X73503064Y-132729815D01*
X73501211Y-132728601D01*
X73452871Y-132696300D01*
X73452856Y-132696292D01*
X73298083Y-132632184D01*
X73298074Y-132632181D01*
X73133771Y-132599500D01*
X73133767Y-132599500D01*
X72966233Y-132599500D01*
X72966228Y-132599500D01*
X72801926Y-132632181D01*
X72801917Y-132632184D01*
X72647136Y-132696296D01*
X72647131Y-132696298D01*
X72598789Y-132728601D01*
X72532112Y-132749480D01*
X72529897Y-132749500D01*
X61362229Y-132749500D01*
X61295190Y-132729815D01*
X61274548Y-132713181D01*
X57130363Y-128568995D01*
X62799499Y-128568995D01*
X62826418Y-128704322D01*
X62826421Y-128704332D01*
X62879221Y-128831804D01*
X62879228Y-128831817D01*
X62955885Y-128946541D01*
X62955888Y-128946545D01*
X63053454Y-129044111D01*
X63053458Y-129044114D01*
X63168182Y-129120771D01*
X63168195Y-129120778D01*
X63282640Y-129168182D01*
X63295672Y-129173580D01*
X63295676Y-129173580D01*
X63295677Y-129173581D01*
X63431004Y-129200500D01*
X63431007Y-129200500D01*
X63568995Y-129200500D01*
X63660041Y-129182389D01*
X63704328Y-129173580D01*
X63831811Y-129120775D01*
X63946542Y-129044114D01*
X64044114Y-128946542D01*
X64120775Y-128831811D01*
X64173580Y-128704328D01*
X64200500Y-128568993D01*
X64200500Y-128431007D01*
X64200500Y-128431004D01*
X64173581Y-128295678D01*
X64173580Y-128295672D01*
X64159937Y-128262734D01*
X64150500Y-128215287D01*
X64150500Y-124568475D01*
X64429500Y-124568475D01*
X64429500Y-126431517D01*
X64439074Y-126491966D01*
X64444354Y-126525304D01*
X64501950Y-126638342D01*
X64501952Y-126638344D01*
X64501954Y-126638347D01*
X64591652Y-126728045D01*
X64591654Y-126728046D01*
X64591658Y-126728050D01*
X64704694Y-126785645D01*
X64704698Y-126785647D01*
X64798475Y-126800499D01*
X64798481Y-126800500D01*
X66661518Y-126800499D01*
X66755304Y-126785646D01*
X66868342Y-126728050D01*
X66958050Y-126638342D01*
X67015646Y-126525304D01*
X67015646Y-126525302D01*
X67015647Y-126525301D01*
X67030499Y-126431525D01*
X67030500Y-126431519D01*
X67030499Y-126388149D01*
X67050182Y-126321113D01*
X67102985Y-126275357D01*
X67172143Y-126265412D01*
X67235700Y-126294435D01*
X67254817Y-126315265D01*
X67278028Y-126347212D01*
X67278032Y-126347217D01*
X67422786Y-126491971D01*
X67577749Y-126604556D01*
X67588390Y-126612287D01*
X67704607Y-126671503D01*
X67770776Y-126705218D01*
X67770778Y-126705218D01*
X67770781Y-126705220D01*
X67841045Y-126728050D01*
X67965465Y-126768477D01*
X68066557Y-126784488D01*
X68167648Y-126800500D01*
X68167649Y-126800500D01*
X68372351Y-126800500D01*
X68372352Y-126800500D01*
X68574534Y-126768477D01*
X68769219Y-126705220D01*
X68951610Y-126612287D01*
X69072799Y-126524239D01*
X69117213Y-126491971D01*
X69117215Y-126491968D01*
X69117219Y-126491966D01*
X69261966Y-126347219D01*
X69261968Y-126347215D01*
X69261971Y-126347213D01*
X69330037Y-126253526D01*
X69382287Y-126181610D01*
X69475220Y-125999219D01*
X69538477Y-125804534D01*
X69570500Y-125602352D01*
X69570500Y-125397648D01*
X69538477Y-125195466D01*
X69475220Y-125000781D01*
X69475218Y-125000778D01*
X69475218Y-125000776D01*
X69441503Y-124934607D01*
X69382287Y-124818390D01*
X69364894Y-124794450D01*
X69261971Y-124652786D01*
X69117213Y-124508028D01*
X68951613Y-124387715D01*
X68951612Y-124387714D01*
X68951610Y-124387713D01*
X68894653Y-124358691D01*
X68769223Y-124294781D01*
X68574534Y-124231522D01*
X68399995Y-124203878D01*
X68372352Y-124199500D01*
X68167648Y-124199500D01*
X68143329Y-124203351D01*
X67965465Y-124231522D01*
X67770776Y-124294781D01*
X67588386Y-124387715D01*
X67422786Y-124508028D01*
X67278032Y-124652782D01*
X67278028Y-124652787D01*
X67254817Y-124684735D01*
X67199487Y-124727401D01*
X67129874Y-124733380D01*
X67068079Y-124700774D01*
X67033722Y-124639936D01*
X67030499Y-124611850D01*
X67030499Y-124568482D01*
X67030498Y-124568475D01*
X67015646Y-124474696D01*
X66958050Y-124361658D01*
X66958046Y-124361654D01*
X66958045Y-124361652D01*
X66868347Y-124271954D01*
X66868344Y-124271952D01*
X66868342Y-124271950D01*
X66788998Y-124231522D01*
X66755301Y-124214352D01*
X66661524Y-124199500D01*
X64798482Y-124199500D01*
X64717519Y-124212323D01*
X64704696Y-124214354D01*
X64591658Y-124271950D01*
X64591657Y-124271951D01*
X64591652Y-124271954D01*
X64501954Y-124361652D01*
X64501951Y-124361657D01*
X64444352Y-124474698D01*
X64429500Y-124568475D01*
X64150500Y-124568475D01*
X64150500Y-123320808D01*
X64170185Y-123253769D01*
X64186819Y-123233127D01*
X67233127Y-120186819D01*
X67294450Y-120153334D01*
X67320808Y-120150500D01*
X68583329Y-120150500D01*
X68650368Y-120170185D01*
X68693813Y-120218204D01*
X68726045Y-120281463D01*
X68764951Y-120357820D01*
X68889890Y-120529786D01*
X69040213Y-120680109D01*
X69212179Y-120805048D01*
X69212181Y-120805049D01*
X69212184Y-120805051D01*
X69401588Y-120901557D01*
X69603757Y-120967246D01*
X69813713Y-121000500D01*
X69813714Y-121000500D01*
X70026286Y-121000500D01*
X70026287Y-121000500D01*
X70236243Y-120967246D01*
X70438412Y-120901557D01*
X70627816Y-120805051D01*
X70713243Y-120742985D01*
X70799786Y-120680109D01*
X70799788Y-120680106D01*
X70799792Y-120680104D01*
X70950104Y-120529792D01*
X70950106Y-120529788D01*
X70950109Y-120529786D01*
X71075048Y-120357820D01*
X71075047Y-120357820D01*
X71075051Y-120357816D01*
X71079514Y-120349054D01*
X71127488Y-120298259D01*
X71195308Y-120281463D01*
X71261444Y-120303999D01*
X71300486Y-120349056D01*
X71304951Y-120357820D01*
X71429890Y-120529786D01*
X71527397Y-120627293D01*
X71560882Y-120688616D01*
X71555898Y-120758308D01*
X71527397Y-120802655D01*
X70494726Y-121835326D01*
X70423534Y-121941874D01*
X70374499Y-122060255D01*
X70374497Y-122060261D01*
X70349500Y-122185928D01*
X70349500Y-128215287D01*
X70340062Y-128262734D01*
X70326420Y-128295672D01*
X70326418Y-128295678D01*
X70299500Y-128431004D01*
X70299500Y-128431007D01*
X70299500Y-128568993D01*
X70299500Y-128568995D01*
X70299499Y-128568995D01*
X70326418Y-128704322D01*
X70326421Y-128704332D01*
X70379221Y-128831804D01*
X70379228Y-128831817D01*
X70455885Y-128946541D01*
X70455888Y-128946545D01*
X70553454Y-129044111D01*
X70553458Y-129044114D01*
X70668182Y-129120771D01*
X70668195Y-129120778D01*
X70782640Y-129168182D01*
X70795672Y-129173580D01*
X70795676Y-129173580D01*
X70795677Y-129173581D01*
X70931004Y-129200500D01*
X70931007Y-129200500D01*
X71068995Y-129200500D01*
X71160041Y-129182389D01*
X71204328Y-129173580D01*
X71331811Y-129120775D01*
X71446542Y-129044114D01*
X71544114Y-128946542D01*
X71620775Y-128831811D01*
X71673580Y-128704328D01*
X71700500Y-128568993D01*
X71700500Y-128431007D01*
X71700500Y-128431004D01*
X71673581Y-128295678D01*
X71673580Y-128295672D01*
X71659937Y-128262734D01*
X71650500Y-128215287D01*
X71650500Y-124568475D01*
X72429500Y-124568475D01*
X72429500Y-126431517D01*
X72439074Y-126491966D01*
X72444354Y-126525304D01*
X72501950Y-126638342D01*
X72501952Y-126638344D01*
X72501954Y-126638347D01*
X72591652Y-126728045D01*
X72591654Y-126728046D01*
X72591658Y-126728050D01*
X72704694Y-126785645D01*
X72704698Y-126785647D01*
X72798475Y-126800499D01*
X72798481Y-126800500D01*
X74661518Y-126800499D01*
X74755304Y-126785646D01*
X74868342Y-126728050D01*
X74958050Y-126638342D01*
X75015646Y-126525304D01*
X75015646Y-126525302D01*
X75015647Y-126525301D01*
X75030499Y-126431525D01*
X75030500Y-126431519D01*
X75030499Y-126388149D01*
X75050182Y-126321113D01*
X75102985Y-126275357D01*
X75172143Y-126265412D01*
X75235700Y-126294435D01*
X75254817Y-126315265D01*
X75278028Y-126347212D01*
X75278032Y-126347217D01*
X75422786Y-126491971D01*
X75577749Y-126604556D01*
X75588390Y-126612287D01*
X75704607Y-126671503D01*
X75770776Y-126705218D01*
X75770778Y-126705218D01*
X75770781Y-126705220D01*
X75841045Y-126728050D01*
X75965465Y-126768477D01*
X76066557Y-126784488D01*
X76167648Y-126800500D01*
X76167649Y-126800500D01*
X76372351Y-126800500D01*
X76372352Y-126800500D01*
X76574534Y-126768477D01*
X76769219Y-126705220D01*
X76951610Y-126612287D01*
X77072799Y-126524239D01*
X77117213Y-126491971D01*
X77117215Y-126491968D01*
X77117219Y-126491966D01*
X77261966Y-126347219D01*
X77261968Y-126347215D01*
X77261971Y-126347213D01*
X77330037Y-126253526D01*
X77382287Y-126181610D01*
X77475220Y-125999219D01*
X77538477Y-125804534D01*
X77570500Y-125602352D01*
X77570500Y-125397648D01*
X77538477Y-125195466D01*
X77475220Y-125000781D01*
X77475218Y-125000778D01*
X77475218Y-125000776D01*
X77441503Y-124934607D01*
X77382287Y-124818390D01*
X77364894Y-124794450D01*
X77261971Y-124652786D01*
X77117213Y-124508028D01*
X76951613Y-124387715D01*
X76951612Y-124387714D01*
X76951610Y-124387713D01*
X76894653Y-124358691D01*
X76769223Y-124294781D01*
X76574534Y-124231522D01*
X76399995Y-124203878D01*
X76372352Y-124199500D01*
X76167648Y-124199500D01*
X76143329Y-124203351D01*
X75965465Y-124231522D01*
X75770776Y-124294781D01*
X75588386Y-124387715D01*
X75422786Y-124508028D01*
X75278032Y-124652782D01*
X75278028Y-124652787D01*
X75254817Y-124684735D01*
X75199487Y-124727401D01*
X75129874Y-124733380D01*
X75068079Y-124700774D01*
X75033722Y-124639936D01*
X75030499Y-124611850D01*
X75030499Y-124568482D01*
X75030498Y-124568475D01*
X75015646Y-124474696D01*
X74958050Y-124361658D01*
X74958046Y-124361654D01*
X74958045Y-124361652D01*
X74868347Y-124271954D01*
X74868344Y-124271952D01*
X74868342Y-124271950D01*
X74788998Y-124231522D01*
X74755301Y-124214352D01*
X74661524Y-124199500D01*
X72798482Y-124199500D01*
X72717519Y-124212323D01*
X72704696Y-124214354D01*
X72591658Y-124271950D01*
X72591657Y-124271951D01*
X72591652Y-124271954D01*
X72501954Y-124361652D01*
X72501951Y-124361657D01*
X72444352Y-124474698D01*
X72429500Y-124568475D01*
X71650500Y-124568475D01*
X71650500Y-122570808D01*
X71670185Y-122503769D01*
X71686819Y-122483127D01*
X72965275Y-121204671D01*
X72965277Y-121204669D01*
X73036465Y-121098127D01*
X73050572Y-121064069D01*
X73085501Y-120979744D01*
X73104346Y-120885003D01*
X73106122Y-120879159D01*
X73122067Y-120854848D01*
X73135537Y-120829098D01*
X73142182Y-120824179D01*
X73144442Y-120820735D01*
X73150457Y-120818055D01*
X73163942Y-120808074D01*
X73163653Y-120807602D01*
X73167805Y-120805056D01*
X73167816Y-120805051D01*
X73339792Y-120680104D01*
X73490104Y-120529792D01*
X73490106Y-120529788D01*
X73490109Y-120529786D01*
X73615048Y-120357820D01*
X73615047Y-120357820D01*
X73615051Y-120357816D01*
X73619514Y-120349054D01*
X73667488Y-120298259D01*
X73735308Y-120281463D01*
X73801444Y-120303999D01*
X73840486Y-120349056D01*
X73844951Y-120357820D01*
X73969890Y-120529786D01*
X73969896Y-120529792D01*
X74120208Y-120680104D01*
X74292184Y-120805051D01*
X74292188Y-120805053D01*
X74296126Y-120807914D01*
X74295146Y-120809262D01*
X74295452Y-120809600D01*
X74302596Y-120812498D01*
X74318563Y-120835139D01*
X74337160Y-120855690D01*
X74339435Y-120864735D01*
X74342864Y-120869597D01*
X74347127Y-120895310D01*
X74349385Y-120904283D01*
X74349500Y-120906954D01*
X74349500Y-121064069D01*
X74356275Y-121098127D01*
X74358132Y-121107466D01*
X74358133Y-121107471D01*
X74374497Y-121189736D01*
X74374499Y-121189744D01*
X74423535Y-121308127D01*
X74450262Y-121348127D01*
X74494726Y-121414673D01*
X74494727Y-121414674D01*
X77813181Y-124733127D01*
X77846666Y-124794450D01*
X77849500Y-124820808D01*
X77849500Y-128215287D01*
X77840062Y-128262734D01*
X77826420Y-128295672D01*
X77826418Y-128295678D01*
X77799500Y-128431004D01*
X77799500Y-128431007D01*
X77799500Y-128568993D01*
X77799500Y-128568995D01*
X77799499Y-128568995D01*
X77826418Y-128704322D01*
X77826421Y-128704332D01*
X77879221Y-128831804D01*
X77879228Y-128831817D01*
X77955885Y-128946541D01*
X77955888Y-128946545D01*
X78053454Y-129044111D01*
X78053458Y-129044114D01*
X78168182Y-129120771D01*
X78168195Y-129120778D01*
X78282640Y-129168182D01*
X78295672Y-129173580D01*
X78295676Y-129173580D01*
X78295677Y-129173581D01*
X78431004Y-129200500D01*
X78431007Y-129200500D01*
X78568995Y-129200500D01*
X78660041Y-129182389D01*
X78704328Y-129173580D01*
X78831811Y-129120775D01*
X78946542Y-129044114D01*
X79044114Y-128946542D01*
X79120775Y-128831811D01*
X79173580Y-128704328D01*
X79200500Y-128568993D01*
X79200500Y-128431007D01*
X79200500Y-128431004D01*
X79173581Y-128295678D01*
X79173580Y-128295672D01*
X79159937Y-128262734D01*
X79150500Y-128215287D01*
X79150500Y-127369808D01*
X79170185Y-127302769D01*
X79222989Y-127257014D01*
X79292147Y-127247070D01*
X79355703Y-127276095D01*
X79362181Y-127282127D01*
X82085325Y-130005272D01*
X82085332Y-130005278D01*
X82143451Y-130044111D01*
X82143453Y-130044112D01*
X82143456Y-130044114D01*
X82191873Y-130076465D01*
X82310256Y-130125501D01*
X82310260Y-130125501D01*
X82310261Y-130125502D01*
X82435928Y-130150500D01*
X82435931Y-130150500D01*
X84215287Y-130150500D01*
X84262739Y-130159938D01*
X84295672Y-130173580D01*
X84295676Y-130173580D01*
X84295677Y-130173581D01*
X84431004Y-130200500D01*
X84431007Y-130200500D01*
X84568995Y-130200500D01*
X84660041Y-130182389D01*
X84704328Y-130173580D01*
X84820399Y-130125502D01*
X84831804Y-130120778D01*
X84831804Y-130120777D01*
X84831811Y-130120775D01*
X84946542Y-130044114D01*
X85044114Y-129946542D01*
X85120775Y-129831811D01*
X85173580Y-129704328D01*
X85200500Y-129568993D01*
X85200500Y-129431007D01*
X85200500Y-129431004D01*
X85173581Y-129295677D01*
X85173580Y-129295676D01*
X85173580Y-129295672D01*
X85134159Y-129200500D01*
X85120778Y-129168195D01*
X85120771Y-129168182D01*
X85044114Y-129053458D01*
X85044111Y-129053454D01*
X84946545Y-128955888D01*
X84946541Y-128955885D01*
X84831817Y-128879228D01*
X84831804Y-128879221D01*
X84704332Y-128826421D01*
X84704322Y-128826418D01*
X84568995Y-128799500D01*
X84568993Y-128799500D01*
X84431007Y-128799500D01*
X84431005Y-128799500D01*
X84295677Y-128826418D01*
X84295671Y-128826420D01*
X84262740Y-128840061D01*
X84215287Y-128849500D01*
X82820808Y-128849500D01*
X82753769Y-128829815D01*
X82733127Y-128813181D01*
X80932126Y-127012180D01*
X80898641Y-126950857D01*
X80903625Y-126881165D01*
X80945497Y-126825232D01*
X81010961Y-126800815D01*
X81019782Y-126800499D01*
X82661518Y-126800499D01*
X82755304Y-126785646D01*
X82868342Y-126728050D01*
X82958050Y-126638342D01*
X83015646Y-126525304D01*
X83015646Y-126525302D01*
X83015647Y-126525301D01*
X83030499Y-126431525D01*
X83030500Y-126431519D01*
X83030499Y-126388149D01*
X83050182Y-126321113D01*
X83102985Y-126275357D01*
X83172143Y-126265412D01*
X83235700Y-126294435D01*
X83254817Y-126315265D01*
X83278028Y-126347212D01*
X83278032Y-126347217D01*
X83422786Y-126491971D01*
X83577749Y-126604556D01*
X83588390Y-126612287D01*
X83704607Y-126671503D01*
X83770776Y-126705218D01*
X83770778Y-126705218D01*
X83770781Y-126705220D01*
X83841045Y-126728050D01*
X83965465Y-126768477D01*
X84066557Y-126784488D01*
X84167648Y-126800500D01*
X84167649Y-126800500D01*
X84372351Y-126800500D01*
X84372352Y-126800500D01*
X84574534Y-126768477D01*
X84769219Y-126705220D01*
X84951610Y-126612287D01*
X85072799Y-126524239D01*
X85117213Y-126491971D01*
X85117215Y-126491968D01*
X85117219Y-126491966D01*
X85261966Y-126347219D01*
X85261968Y-126347215D01*
X85261971Y-126347213D01*
X85330037Y-126253526D01*
X85382287Y-126181610D01*
X85475220Y-125999219D01*
X85538477Y-125804534D01*
X85570500Y-125602352D01*
X85570500Y-125397648D01*
X85538477Y-125195466D01*
X85475220Y-125000781D01*
X85475218Y-125000778D01*
X85475218Y-125000776D01*
X85441503Y-124934607D01*
X85382287Y-124818390D01*
X85364894Y-124794450D01*
X85261971Y-124652786D01*
X85117213Y-124508028D01*
X84951613Y-124387715D01*
X84951612Y-124387714D01*
X84951610Y-124387713D01*
X84894653Y-124358691D01*
X84769223Y-124294781D01*
X84574534Y-124231522D01*
X84399995Y-124203878D01*
X84372352Y-124199500D01*
X84167648Y-124199500D01*
X84143329Y-124203351D01*
X83965465Y-124231522D01*
X83770776Y-124294781D01*
X83588386Y-124387715D01*
X83422786Y-124508028D01*
X83278032Y-124652782D01*
X83278028Y-124652787D01*
X83254817Y-124684735D01*
X83199487Y-124727401D01*
X83129874Y-124733380D01*
X83068079Y-124700774D01*
X83033722Y-124639936D01*
X83030499Y-124611850D01*
X83030499Y-124568482D01*
X83030498Y-124568475D01*
X83015646Y-124474696D01*
X82958050Y-124361658D01*
X82958046Y-124361654D01*
X82958045Y-124361652D01*
X82868347Y-124271954D01*
X82868344Y-124271952D01*
X82868342Y-124271950D01*
X82788998Y-124231522D01*
X82755301Y-124214352D01*
X82661524Y-124199500D01*
X80798482Y-124199500D01*
X80717519Y-124212323D01*
X80704696Y-124214354D01*
X80591658Y-124271950D01*
X80591657Y-124271951D01*
X80591652Y-124271954D01*
X80501954Y-124361652D01*
X80501951Y-124361657D01*
X80444352Y-124474698D01*
X80429500Y-124568475D01*
X80429500Y-126210192D01*
X80423261Y-126231437D01*
X80421682Y-126253526D01*
X80413609Y-126264309D01*
X80409815Y-126277231D01*
X80393081Y-126291730D01*
X80379810Y-126309459D01*
X80367189Y-126314166D01*
X80357011Y-126322986D01*
X80335093Y-126326137D01*
X80314346Y-126333876D01*
X80301185Y-126331013D01*
X80287853Y-126332930D01*
X80267709Y-126323730D01*
X80246073Y-126319024D01*
X80228347Y-126305755D01*
X80224297Y-126303905D01*
X80217819Y-126297873D01*
X80186819Y-126266873D01*
X80153334Y-126205550D01*
X80150500Y-126179192D01*
X80150500Y-122935928D01*
X80125502Y-122810261D01*
X80125501Y-122810260D01*
X80125501Y-122810256D01*
X80102728Y-122755277D01*
X80076466Y-122691874D01*
X80058288Y-122664669D01*
X80005278Y-122585332D01*
X80005272Y-122585325D01*
X78337261Y-120917315D01*
X78303776Y-120855992D01*
X78308760Y-120786300D01*
X78350632Y-120730367D01*
X78352058Y-120729315D01*
X78419785Y-120680109D01*
X78419784Y-120680109D01*
X78419792Y-120680104D01*
X78570104Y-120529792D01*
X78570109Y-120529784D01*
X78571704Y-120528190D01*
X78633028Y-120494705D01*
X78702719Y-120499689D01*
X78758653Y-120541560D01*
X78777771Y-120578978D01*
X78784846Y-120601682D01*
X78832254Y-120680104D01*
X78870267Y-120742985D01*
X78987014Y-120859732D01*
X78987016Y-120859733D01*
X78987018Y-120859735D01*
X79128318Y-120945154D01*
X79285954Y-120994275D01*
X79354456Y-121000500D01*
X79354459Y-121000500D01*
X80805541Y-121000500D01*
X80805544Y-121000500D01*
X80874046Y-120994275D01*
X81031682Y-120945154D01*
X81172982Y-120859735D01*
X81289735Y-120742982D01*
X81375154Y-120601682D01*
X81424275Y-120444046D01*
X81430500Y-120375544D01*
X81430500Y-120274500D01*
X81433050Y-120265814D01*
X81431762Y-120256853D01*
X81442740Y-120232812D01*
X81450185Y-120207461D01*
X81457025Y-120201533D01*
X81460787Y-120193297D01*
X81483021Y-120179007D01*
X81502989Y-120161706D01*
X81513503Y-120159418D01*
X81519565Y-120155523D01*
X81554500Y-120150500D01*
X81679192Y-120150500D01*
X81746231Y-120170185D01*
X81766873Y-120186819D01*
X86313181Y-124733127D01*
X86346666Y-124794450D01*
X86349500Y-124820808D01*
X86349500Y-128064071D01*
X86369593Y-128165081D01*
X86369593Y-128165082D01*
X86374497Y-128189737D01*
X86374498Y-128189741D01*
X86374499Y-128189744D01*
X86396996Y-128244056D01*
X86423534Y-128308125D01*
X86494726Y-128414673D01*
X88085327Y-130005274D01*
X88085330Y-130005276D01*
X88143456Y-130044114D01*
X88191873Y-130076465D01*
X88310256Y-130125501D01*
X88310260Y-130125501D01*
X88310261Y-130125502D01*
X88435928Y-130150500D01*
X88435931Y-130150500D01*
X90215287Y-130150500D01*
X90262739Y-130159938D01*
X90295672Y-130173580D01*
X90295676Y-130173580D01*
X90295677Y-130173581D01*
X90431004Y-130200500D01*
X90431007Y-130200500D01*
X90568995Y-130200500D01*
X90660041Y-130182389D01*
X90704328Y-130173580D01*
X90820399Y-130125502D01*
X90831804Y-130120778D01*
X90831804Y-130120777D01*
X90831811Y-130120775D01*
X90946542Y-130044114D01*
X91044114Y-129946542D01*
X91120775Y-129831811D01*
X91173580Y-129704328D01*
X91200500Y-129568993D01*
X91200500Y-129431007D01*
X91200500Y-129431004D01*
X91173581Y-129295677D01*
X91173580Y-129295676D01*
X91173580Y-129295672D01*
X91134159Y-129200500D01*
X91120778Y-129168195D01*
X91120771Y-129168182D01*
X91044114Y-129053458D01*
X91044111Y-129053454D01*
X90946545Y-128955888D01*
X90946541Y-128955885D01*
X90831817Y-128879228D01*
X90831804Y-128879221D01*
X90704332Y-128826421D01*
X90704322Y-128826418D01*
X90568995Y-128799500D01*
X90568993Y-128799500D01*
X90431007Y-128799500D01*
X90431005Y-128799500D01*
X90295677Y-128826418D01*
X90295671Y-128826420D01*
X90262740Y-128840061D01*
X90215287Y-128849500D01*
X88820808Y-128849500D01*
X88753769Y-128829815D01*
X88733127Y-128813181D01*
X87686819Y-127766873D01*
X87653334Y-127705550D01*
X87650500Y-127679192D01*
X87650500Y-124568475D01*
X88429500Y-124568475D01*
X88429500Y-126431517D01*
X88439074Y-126491966D01*
X88444354Y-126525304D01*
X88501950Y-126638342D01*
X88501952Y-126638344D01*
X88501954Y-126638347D01*
X88591652Y-126728045D01*
X88591654Y-126728046D01*
X88591658Y-126728050D01*
X88704694Y-126785645D01*
X88704698Y-126785647D01*
X88798475Y-126800499D01*
X88798481Y-126800500D01*
X90661518Y-126800499D01*
X90755304Y-126785646D01*
X90868342Y-126728050D01*
X90958050Y-126638342D01*
X91015646Y-126525304D01*
X91015646Y-126525302D01*
X91015647Y-126525301D01*
X91030499Y-126431525D01*
X91030500Y-126431519D01*
X91030499Y-126388149D01*
X91050182Y-126321113D01*
X91102985Y-126275357D01*
X91172143Y-126265412D01*
X91235700Y-126294435D01*
X91254817Y-126315265D01*
X91278028Y-126347212D01*
X91278032Y-126347217D01*
X91422786Y-126491971D01*
X91577749Y-126604556D01*
X91588390Y-126612287D01*
X91704607Y-126671503D01*
X91770776Y-126705218D01*
X91770778Y-126705218D01*
X91770781Y-126705220D01*
X91841045Y-126728050D01*
X91965465Y-126768477D01*
X92066557Y-126784488D01*
X92167648Y-126800500D01*
X92167649Y-126800500D01*
X92372351Y-126800500D01*
X92372352Y-126800500D01*
X92574534Y-126768477D01*
X92769219Y-126705220D01*
X92951610Y-126612287D01*
X93072799Y-126524239D01*
X93117213Y-126491971D01*
X93117215Y-126491968D01*
X93117219Y-126491966D01*
X93261966Y-126347219D01*
X93261968Y-126347215D01*
X93261971Y-126347213D01*
X93330037Y-126253526D01*
X93382287Y-126181610D01*
X93475220Y-125999219D01*
X93538477Y-125804534D01*
X93570500Y-125602352D01*
X93570500Y-125397648D01*
X93538477Y-125195466D01*
X93475220Y-125000781D01*
X93475218Y-125000778D01*
X93475218Y-125000776D01*
X93441503Y-124934607D01*
X93382287Y-124818390D01*
X93364894Y-124794450D01*
X93261971Y-124652786D01*
X93117213Y-124508028D01*
X92951613Y-124387715D01*
X92951612Y-124387714D01*
X92951610Y-124387713D01*
X92894653Y-124358691D01*
X92769223Y-124294781D01*
X92574534Y-124231522D01*
X92399995Y-124203878D01*
X92372352Y-124199500D01*
X92167648Y-124199500D01*
X92143329Y-124203351D01*
X91965465Y-124231522D01*
X91770776Y-124294781D01*
X91588386Y-124387715D01*
X91422786Y-124508028D01*
X91278032Y-124652782D01*
X91278028Y-124652787D01*
X91254817Y-124684735D01*
X91199487Y-124727401D01*
X91129874Y-124733380D01*
X91068079Y-124700774D01*
X91033722Y-124639936D01*
X91030499Y-124611850D01*
X91030499Y-124568482D01*
X91030498Y-124568475D01*
X91015646Y-124474696D01*
X90958050Y-124361658D01*
X90958046Y-124361654D01*
X90958045Y-124361652D01*
X90868347Y-124271954D01*
X90868344Y-124271952D01*
X90868342Y-124271950D01*
X90788998Y-124231522D01*
X90755301Y-124214352D01*
X90661524Y-124199500D01*
X88798482Y-124199500D01*
X88717519Y-124212323D01*
X88704696Y-124214354D01*
X88591658Y-124271950D01*
X88591657Y-124271951D01*
X88591652Y-124271954D01*
X88501954Y-124361652D01*
X88501951Y-124361657D01*
X88444352Y-124474698D01*
X88429500Y-124568475D01*
X87650500Y-124568475D01*
X87650500Y-124435928D01*
X87625502Y-124310261D01*
X87625501Y-124310260D01*
X87625501Y-124310256D01*
X87576465Y-124191873D01*
X87505277Y-124085331D01*
X87505275Y-124085329D01*
X87505273Y-124085326D01*
X82414673Y-118994726D01*
X82414669Y-118994723D01*
X82308127Y-118923535D01*
X82189744Y-118874499D01*
X82189738Y-118874497D01*
X82064071Y-118849500D01*
X82064069Y-118849500D01*
X81554500Y-118849500D01*
X81487461Y-118829815D01*
X81441706Y-118777011D01*
X81430500Y-118725500D01*
X81430500Y-118624458D01*
X81424275Y-118555957D01*
X81424275Y-118555954D01*
X81375154Y-118398318D01*
X81289735Y-118257018D01*
X81289733Y-118257016D01*
X81289732Y-118257014D01*
X81172985Y-118140267D01*
X81031682Y-118054846D01*
X80874046Y-118005725D01*
X80874044Y-118005724D01*
X80874042Y-118005724D01*
X80826082Y-118001366D01*
X80805544Y-117999500D01*
X79354456Y-117999500D01*
X79335784Y-118001196D01*
X79285957Y-118005724D01*
X79128317Y-118054846D01*
X78987014Y-118140267D01*
X78870267Y-118257014D01*
X78784844Y-118398320D01*
X78777770Y-118421022D01*
X78739031Y-118479168D01*
X78675005Y-118507140D01*
X78606020Y-118496057D01*
X78571705Y-118471809D01*
X78419786Y-118319890D01*
X78247820Y-118194951D01*
X78058414Y-118098444D01*
X78058413Y-118098443D01*
X78058412Y-118098443D01*
X77856243Y-118032754D01*
X77856241Y-118032753D01*
X77856240Y-118032753D01*
X77685590Y-118005725D01*
X77646287Y-117999500D01*
X77433713Y-117999500D01*
X77394410Y-118005725D01*
X77223760Y-118032753D01*
X77021585Y-118098444D01*
X76832179Y-118194951D01*
X76660213Y-118319890D01*
X76509890Y-118470213D01*
X76384949Y-118642182D01*
X76380484Y-118650946D01*
X76332509Y-118701742D01*
X76264688Y-118718536D01*
X76198553Y-118695998D01*
X76159516Y-118650946D01*
X76155050Y-118642182D01*
X76030109Y-118470213D01*
X75879786Y-118319890D01*
X75707820Y-118194951D01*
X75518414Y-118098444D01*
X75518413Y-118098443D01*
X75518412Y-118098443D01*
X75316243Y-118032754D01*
X75316241Y-118032753D01*
X75316240Y-118032753D01*
X75145590Y-118005725D01*
X75106287Y-117999500D01*
X74893713Y-117999500D01*
X74854410Y-118005725D01*
X74683760Y-118032753D01*
X74481585Y-118098444D01*
X74292179Y-118194951D01*
X74120213Y-118319890D01*
X73969890Y-118470213D01*
X73844949Y-118642182D01*
X73840484Y-118650946D01*
X73792509Y-118701742D01*
X73724688Y-118718536D01*
X73658553Y-118695998D01*
X73619516Y-118650946D01*
X73615050Y-118642182D01*
X73490109Y-118470213D01*
X73339786Y-118319890D01*
X73167820Y-118194951D01*
X72978414Y-118098444D01*
X72978413Y-118098443D01*
X72978412Y-118098443D01*
X72776243Y-118032754D01*
X72776241Y-118032753D01*
X72776240Y-118032753D01*
X72605590Y-118005725D01*
X72566287Y-117999500D01*
X72353713Y-117999500D01*
X72314410Y-118005725D01*
X72143760Y-118032753D01*
X71941585Y-118098444D01*
X71752179Y-118194951D01*
X71580213Y-118319890D01*
X71429890Y-118470213D01*
X71304949Y-118642182D01*
X71300484Y-118650946D01*
X71252509Y-118701742D01*
X71184688Y-118718536D01*
X71118553Y-118695998D01*
X71079516Y-118650946D01*
X71075050Y-118642182D01*
X70950109Y-118470213D01*
X70799786Y-118319890D01*
X70627820Y-118194951D01*
X70438414Y-118098444D01*
X70438413Y-118098443D01*
X70438412Y-118098443D01*
X70236243Y-118032754D01*
X70236241Y-118032753D01*
X70236240Y-118032753D01*
X70065590Y-118005725D01*
X70026287Y-117999500D01*
X69813713Y-117999500D01*
X69774410Y-118005725D01*
X69603760Y-118032753D01*
X69401585Y-118098444D01*
X69212179Y-118194951D01*
X69040213Y-118319890D01*
X68889890Y-118470213D01*
X68764951Y-118642179D01*
X68737529Y-118695998D01*
X68696252Y-118777011D01*
X68693814Y-118781795D01*
X68645840Y-118832591D01*
X68583329Y-118849500D01*
X66935929Y-118849500D01*
X66810261Y-118874497D01*
X66810255Y-118874499D01*
X66691870Y-118923535D01*
X66585331Y-118994722D01*
X66585324Y-118994728D01*
X62994727Y-122585325D01*
X62994721Y-122585332D01*
X62941711Y-122664668D01*
X62941712Y-122664669D01*
X62923534Y-122691874D01*
X62874499Y-122810255D01*
X62874497Y-122810261D01*
X62849500Y-122935928D01*
X62849500Y-128215287D01*
X62848112Y-128222262D01*
X62846116Y-128244056D01*
X62843830Y-128253639D01*
X62826420Y-128295672D01*
X62799500Y-128431007D01*
X62799500Y-128568993D01*
X62799500Y-128568995D01*
X62799499Y-128568995D01*
X57130363Y-128568995D01*
X57073964Y-128512596D01*
X55786819Y-127225451D01*
X55753334Y-127164128D01*
X55750500Y-127137770D01*
X55750500Y-124568475D01*
X56429500Y-124568475D01*
X56429500Y-126431517D01*
X56439074Y-126491966D01*
X56444354Y-126525304D01*
X56501950Y-126638342D01*
X56501952Y-126638344D01*
X56501954Y-126638347D01*
X56591652Y-126728045D01*
X56591654Y-126728046D01*
X56591658Y-126728050D01*
X56704694Y-126785645D01*
X56704698Y-126785647D01*
X56798475Y-126800499D01*
X56798481Y-126800500D01*
X58661518Y-126800499D01*
X58755304Y-126785646D01*
X58868342Y-126728050D01*
X58958050Y-126638342D01*
X59015646Y-126525304D01*
X59015646Y-126525302D01*
X59015647Y-126525301D01*
X59030499Y-126431525D01*
X59030500Y-126431519D01*
X59030499Y-126388149D01*
X59050182Y-126321113D01*
X59102985Y-126275357D01*
X59172143Y-126265412D01*
X59235700Y-126294435D01*
X59254817Y-126315265D01*
X59278028Y-126347212D01*
X59278032Y-126347217D01*
X59422786Y-126491971D01*
X59577749Y-126604556D01*
X59588390Y-126612287D01*
X59704607Y-126671503D01*
X59770776Y-126705218D01*
X59770778Y-126705218D01*
X59770781Y-126705220D01*
X59841045Y-126728050D01*
X59965465Y-126768477D01*
X60066557Y-126784488D01*
X60167648Y-126800500D01*
X60167649Y-126800500D01*
X60372351Y-126800500D01*
X60372352Y-126800500D01*
X60574534Y-126768477D01*
X60769219Y-126705220D01*
X60951610Y-126612287D01*
X61072799Y-126524239D01*
X61117213Y-126491971D01*
X61117215Y-126491968D01*
X61117219Y-126491966D01*
X61261966Y-126347219D01*
X61261968Y-126347215D01*
X61261971Y-126347213D01*
X61330037Y-126253526D01*
X61382287Y-126181610D01*
X61475220Y-125999219D01*
X61538477Y-125804534D01*
X61570500Y-125602352D01*
X61570500Y-125397648D01*
X61538477Y-125195466D01*
X61475220Y-125000781D01*
X61475218Y-125000778D01*
X61475218Y-125000776D01*
X61441503Y-124934607D01*
X61382287Y-124818390D01*
X61364894Y-124794450D01*
X61261971Y-124652786D01*
X61117213Y-124508028D01*
X60951613Y-124387715D01*
X60951612Y-124387714D01*
X60951610Y-124387713D01*
X60894653Y-124358691D01*
X60769223Y-124294781D01*
X60574534Y-124231522D01*
X60399995Y-124203878D01*
X60372352Y-124199500D01*
X60167648Y-124199500D01*
X60143329Y-124203351D01*
X59965465Y-124231522D01*
X59770776Y-124294781D01*
X59588386Y-124387715D01*
X59422786Y-124508028D01*
X59278032Y-124652782D01*
X59278028Y-124652787D01*
X59254817Y-124684735D01*
X59199487Y-124727401D01*
X59129874Y-124733380D01*
X59068079Y-124700774D01*
X59033722Y-124639936D01*
X59030499Y-124611850D01*
X59030499Y-124568482D01*
X59030498Y-124568475D01*
X59015646Y-124474696D01*
X58958050Y-124361658D01*
X58958046Y-124361654D01*
X58958045Y-124361652D01*
X58868347Y-124271954D01*
X58868344Y-124271952D01*
X58868342Y-124271950D01*
X58788998Y-124231522D01*
X58755301Y-124214352D01*
X58661524Y-124199500D01*
X56798482Y-124199500D01*
X56717519Y-124212323D01*
X56704696Y-124214354D01*
X56591658Y-124271950D01*
X56591657Y-124271951D01*
X56591652Y-124271954D01*
X56501954Y-124361652D01*
X56501951Y-124361657D01*
X56444352Y-124474698D01*
X56429500Y-124568475D01*
X55750500Y-124568475D01*
X55750500Y-121362230D01*
X55770185Y-121295191D01*
X55786819Y-121274549D01*
X62274549Y-114786819D01*
X62335872Y-114753334D01*
X62362230Y-114750500D01*
X72573920Y-114750500D01*
X72671462Y-114731096D01*
X72718913Y-114721658D01*
X72855495Y-114665084D01*
X72904729Y-114632186D01*
X72978416Y-114582952D01*
X75582952Y-111978416D01*
X75632186Y-111904729D01*
X75665084Y-111855495D01*
X75721658Y-111718913D01*
X75750500Y-111573918D01*
X75750500Y-110337220D01*
X75770185Y-110270181D01*
X75801614Y-110236902D01*
X75879792Y-110180104D01*
X76030104Y-110029792D01*
X76030106Y-110029788D01*
X76030109Y-110029786D01*
X76155048Y-109857820D01*
X76155047Y-109857820D01*
X76155051Y-109857816D01*
X76159514Y-109849054D01*
X76207488Y-109798259D01*
X76275308Y-109781463D01*
X76341444Y-109803999D01*
X76380486Y-109849056D01*
X76384951Y-109857820D01*
X76509890Y-110029786D01*
X76660213Y-110180109D01*
X76832179Y-110305048D01*
X76832181Y-110305049D01*
X76832184Y-110305051D01*
X77021588Y-110401557D01*
X77223757Y-110467246D01*
X77433713Y-110500500D01*
X77433714Y-110500500D01*
X77646286Y-110500500D01*
X77646287Y-110500500D01*
X77856243Y-110467246D01*
X78058412Y-110401557D01*
X78247816Y-110305051D01*
X78333243Y-110242985D01*
X78419786Y-110180109D01*
X78419788Y-110180106D01*
X78419792Y-110180104D01*
X78570104Y-110029792D01*
X78570106Y-110029788D01*
X78570109Y-110029786D01*
X78695048Y-109857820D01*
X78695047Y-109857820D01*
X78695051Y-109857816D01*
X78699514Y-109849054D01*
X78747488Y-109798259D01*
X78815308Y-109781463D01*
X78881444Y-109803999D01*
X78920486Y-109849056D01*
X78924951Y-109857820D01*
X79049890Y-110029786D01*
X79200213Y-110180109D01*
X79372179Y-110305048D01*
X79372181Y-110305049D01*
X79372184Y-110305051D01*
X79561588Y-110401557D01*
X79763757Y-110467246D01*
X79973713Y-110500500D01*
X79973714Y-110500500D01*
X80186286Y-110500500D01*
X80186287Y-110500500D01*
X80396243Y-110467246D01*
X80598412Y-110401557D01*
X80787816Y-110305051D01*
X80873243Y-110242985D01*
X80959786Y-110180109D01*
X80959788Y-110180106D01*
X80959792Y-110180104D01*
X81110104Y-110029792D01*
X81110106Y-110029788D01*
X81110109Y-110029786D01*
X81177515Y-109937007D01*
X81235051Y-109857816D01*
X81239793Y-109848508D01*
X81287763Y-109797711D01*
X81355583Y-109780911D01*
X81421719Y-109803445D01*
X81460763Y-109848500D01*
X81465377Y-109857555D01*
X81590272Y-110029459D01*
X81590276Y-110029464D01*
X81740535Y-110179723D01*
X81740540Y-110179727D01*
X81912442Y-110304620D01*
X82101782Y-110401095D01*
X82303871Y-110466757D01*
X82320000Y-110469312D01*
X82320000Y-109404144D01*
X82427007Y-109465925D01*
X82554174Y-109500000D01*
X82685826Y-109500000D01*
X82812993Y-109465925D01*
X82920000Y-109404144D01*
X82920000Y-110469311D01*
X82936126Y-110466757D01*
X82936129Y-110466757D01*
X83138217Y-110401095D01*
X83327557Y-110304620D01*
X83499458Y-110179728D01*
X83651536Y-110027650D01*
X83712860Y-109994165D01*
X83782551Y-109999149D01*
X83838485Y-110041020D01*
X83857603Y-110078439D01*
X83864845Y-110101680D01*
X83950267Y-110242985D01*
X84067014Y-110359732D01*
X84067016Y-110359733D01*
X84067018Y-110359735D01*
X84208318Y-110445154D01*
X84365954Y-110494275D01*
X84434456Y-110500500D01*
X84434459Y-110500500D01*
X85885541Y-110500500D01*
X85885544Y-110500500D01*
X85954046Y-110494275D01*
X86111682Y-110445154D01*
X86252982Y-110359735D01*
X86369735Y-110242982D01*
X86455154Y-110101682D01*
X86504275Y-109944046D01*
X86510500Y-109875544D01*
X86510500Y-108124456D01*
X86504275Y-108055954D01*
X86455154Y-107898318D01*
X86369735Y-107757018D01*
X86369733Y-107757016D01*
X86369732Y-107757014D01*
X86252985Y-107640267D01*
X86170465Y-107590382D01*
X86111682Y-107554846D01*
X85954046Y-107505725D01*
X85954044Y-107505724D01*
X85954042Y-107505724D01*
X85906082Y-107501366D01*
X85885544Y-107499500D01*
X84434456Y-107499500D01*
X84415784Y-107501196D01*
X84365957Y-107505724D01*
X84208317Y-107554846D01*
X84067014Y-107640267D01*
X83950267Y-107757014D01*
X83864846Y-107898318D01*
X83857603Y-107921561D01*
X83818864Y-107979708D01*
X83754838Y-108007680D01*
X83685853Y-107996597D01*
X83651537Y-107972349D01*
X83499464Y-107820276D01*
X83499459Y-107820272D01*
X83327557Y-107695379D01*
X83138217Y-107598904D01*
X82936124Y-107533241D01*
X82920000Y-107530686D01*
X82920000Y-108595855D01*
X82812993Y-108534075D01*
X82685826Y-108500000D01*
X82554174Y-108500000D01*
X82427007Y-108534075D01*
X82320000Y-108595855D01*
X82320000Y-107530687D01*
X82319999Y-107530686D01*
X82303875Y-107533241D01*
X82101782Y-107598904D01*
X81912442Y-107695379D01*
X81740540Y-107820272D01*
X81740535Y-107820276D01*
X81590276Y-107970535D01*
X81590272Y-107970540D01*
X81465378Y-108142443D01*
X81460762Y-108151502D01*
X81412784Y-108202295D01*
X81344963Y-108219087D01*
X81278829Y-108196546D01*
X81239794Y-108151493D01*
X81235051Y-108142184D01*
X81235049Y-108142181D01*
X81235048Y-108142179D01*
X81110109Y-107970213D01*
X80959786Y-107819890D01*
X80783875Y-107692085D01*
X80784851Y-107690740D01*
X80742834Y-107644295D01*
X80730500Y-107590382D01*
X80730500Y-88568995D01*
X82799499Y-88568995D01*
X82826418Y-88704322D01*
X82826420Y-88704328D01*
X82840061Y-88737260D01*
X82849500Y-88784713D01*
X82849500Y-98252787D01*
X82840062Y-98300234D01*
X82826420Y-98333172D01*
X82826418Y-98333178D01*
X82799500Y-98468504D01*
X82799500Y-98468507D01*
X82799500Y-98606493D01*
X82799500Y-98606495D01*
X82799499Y-98606495D01*
X82826418Y-98741822D01*
X82826421Y-98741832D01*
X82879221Y-98869304D01*
X82879228Y-98869317D01*
X82955885Y-98984041D01*
X82955888Y-98984045D01*
X83053454Y-99081611D01*
X83053458Y-99081614D01*
X83168182Y-99158271D01*
X83168195Y-99158278D01*
X83295667Y-99211078D01*
X83295672Y-99211080D01*
X83295676Y-99211080D01*
X83295677Y-99211081D01*
X83431004Y-99238000D01*
X83431007Y-99238000D01*
X83568995Y-99238000D01*
X83664949Y-99218913D01*
X83704328Y-99211080D01*
X83831811Y-99158275D01*
X83946542Y-99081614D01*
X84044114Y-98984042D01*
X84120775Y-98869311D01*
X84173580Y-98741828D01*
X84200500Y-98606493D01*
X84200500Y-98468507D01*
X84200500Y-98468504D01*
X84173928Y-98334921D01*
X84173580Y-98333172D01*
X84159937Y-98300234D01*
X84150500Y-98252787D01*
X84150500Y-88784713D01*
X84159939Y-88737260D01*
X84173580Y-88704328D01*
X84200500Y-88568993D01*
X84200500Y-88431007D01*
X84200500Y-88431004D01*
X84173581Y-88295677D01*
X84173580Y-88295676D01*
X84173580Y-88295672D01*
X84173578Y-88295667D01*
X84120778Y-88168195D01*
X84120771Y-88168182D01*
X84044114Y-88053458D01*
X84044111Y-88053454D01*
X83946545Y-87955888D01*
X83946541Y-87955885D01*
X83831817Y-87879228D01*
X83831804Y-87879221D01*
X83704332Y-87826421D01*
X83704322Y-87826418D01*
X83568995Y-87799500D01*
X83568993Y-87799500D01*
X83431007Y-87799500D01*
X83431005Y-87799500D01*
X83295677Y-87826418D01*
X83295667Y-87826421D01*
X83168195Y-87879221D01*
X83168182Y-87879228D01*
X83053458Y-87955885D01*
X83053454Y-87955888D01*
X82955888Y-88053454D01*
X82955885Y-88053458D01*
X82879228Y-88168182D01*
X82879221Y-88168195D01*
X82826421Y-88295667D01*
X82826418Y-88295677D01*
X82799500Y-88431004D01*
X82799500Y-88431007D01*
X82799500Y-88568993D01*
X82799500Y-88568995D01*
X82799499Y-88568995D01*
X80730500Y-88568995D01*
X80730500Y-87784713D01*
X80739939Y-87737260D01*
X80753580Y-87704328D01*
X80780500Y-87568993D01*
X80780500Y-87431007D01*
X80780500Y-87431004D01*
X80753581Y-87295678D01*
X80753580Y-87295672D01*
X80739937Y-87262734D01*
X80730500Y-87215287D01*
X80730500Y-86055928D01*
X80705502Y-85930261D01*
X80705501Y-85930260D01*
X80705501Y-85930256D01*
X80656465Y-85811873D01*
X80656464Y-85811872D01*
X80656461Y-85811866D01*
X80585277Y-85705332D01*
X80558737Y-85678792D01*
X80494669Y-85614724D01*
X80160657Y-85280712D01*
X80127172Y-85219389D01*
X80127688Y-85171245D01*
X80126484Y-85171055D01*
X80160500Y-84956286D01*
X80160500Y-84743713D01*
X80146767Y-84657007D01*
X80127246Y-84533757D01*
X80061557Y-84331588D01*
X79965051Y-84142184D01*
X79965049Y-84142181D01*
X79965048Y-84142179D01*
X79840109Y-83970213D01*
X79689786Y-83819890D01*
X79517820Y-83694951D01*
X79328414Y-83598444D01*
X79328413Y-83598443D01*
X79328412Y-83598443D01*
X79126243Y-83532754D01*
X79126241Y-83532753D01*
X79126240Y-83532753D01*
X78964957Y-83507208D01*
X78916287Y-83499500D01*
X78703713Y-83499500D01*
X78655042Y-83507208D01*
X78493760Y-83532753D01*
X78291585Y-83598444D01*
X78102179Y-83694951D01*
X77930213Y-83819890D01*
X77779890Y-83970213D01*
X77654949Y-84142182D01*
X77650484Y-84150946D01*
X77602509Y-84201742D01*
X77534688Y-84218536D01*
X77468553Y-84195998D01*
X77429516Y-84150946D01*
X77425050Y-84142182D01*
X77300109Y-83970213D01*
X77149786Y-83819890D01*
X76977820Y-83694951D01*
X76788414Y-83598444D01*
X76788413Y-83598443D01*
X76788412Y-83598443D01*
X76586243Y-83532754D01*
X76586241Y-83532753D01*
X76586240Y-83532753D01*
X76424957Y-83507208D01*
X76376287Y-83499500D01*
X76163713Y-83499500D01*
X76115042Y-83507208D01*
X75953760Y-83532753D01*
X75751585Y-83598444D01*
X75562179Y-83694951D01*
X75390213Y-83819890D01*
X75239890Y-83970213D01*
X75114949Y-84142182D01*
X75110484Y-84150946D01*
X75062509Y-84201742D01*
X74994688Y-84218536D01*
X74928553Y-84195998D01*
X74889516Y-84150946D01*
X74885050Y-84142182D01*
X74760109Y-83970213D01*
X74609786Y-83819890D01*
X74437820Y-83694951D01*
X74248414Y-83598444D01*
X74248413Y-83598443D01*
X74248412Y-83598443D01*
X74046243Y-83532754D01*
X74046241Y-83532753D01*
X74046240Y-83532753D01*
X73884957Y-83507208D01*
X73836287Y-83499500D01*
X73623713Y-83499500D01*
X73575042Y-83507208D01*
X73413760Y-83532753D01*
X73211585Y-83598444D01*
X73022179Y-83694951D01*
X72850213Y-83819890D01*
X72699884Y-83970219D01*
X72699515Y-83970652D01*
X72699333Y-83970770D01*
X72696451Y-83973653D01*
X72695844Y-83973046D01*
X72641000Y-84008833D01*
X72571132Y-84009317D01*
X72512094Y-83971951D01*
X72490680Y-83937552D01*
X72467894Y-83882542D01*
X72376528Y-83763471D01*
X72257455Y-83672103D01*
X72118803Y-83614672D01*
X72118799Y-83614671D01*
X72007370Y-83600000D01*
X71490000Y-83600000D01*
X71490000Y-84445855D01*
X71382993Y-84384075D01*
X71255826Y-84350000D01*
X71124174Y-84350000D01*
X70997007Y-84384075D01*
X70890000Y-84445855D01*
X70890000Y-83600000D01*
X70372635Y-83600000D01*
X70261207Y-83614669D01*
X70261196Y-83614672D01*
X70122544Y-83672103D01*
X70122543Y-83672103D01*
X70003471Y-83763471D01*
X69912103Y-83882543D01*
X69912103Y-83882544D01*
X69854672Y-84021196D01*
X69854671Y-84021200D01*
X69840000Y-84132629D01*
X69840000Y-84550000D01*
X70785856Y-84550000D01*
X70724075Y-84657007D01*
X70690000Y-84784174D01*
X70690000Y-84915826D01*
X70724075Y-85042993D01*
X70785856Y-85150000D01*
X69840001Y-85150000D01*
X69840001Y-85567364D01*
X69854669Y-85678792D01*
X69854672Y-85678803D01*
X69912103Y-85817455D01*
X69912103Y-85817456D01*
X70003471Y-85936528D01*
X70122544Y-86027896D01*
X70261196Y-86085327D01*
X70261200Y-86085328D01*
X70372636Y-86099999D01*
X70889999Y-86099999D01*
X70890000Y-86099998D01*
X70890000Y-85254144D01*
X70997007Y-85315925D01*
X71124174Y-85350000D01*
X71255826Y-85350000D01*
X71382993Y-85315925D01*
X71490000Y-85254144D01*
X71490000Y-86099999D01*
X72007364Y-86099999D01*
X72118792Y-86085330D01*
X72118803Y-86085327D01*
X72257455Y-86027896D01*
X72257456Y-86027896D01*
X72376528Y-85936528D01*
X72467894Y-85817457D01*
X72490680Y-85762447D01*
X72534520Y-85708043D01*
X72600814Y-85685977D01*
X72668514Y-85703255D01*
X72696221Y-85726576D01*
X72696451Y-85726347D01*
X72699126Y-85729022D01*
X72699525Y-85729358D01*
X72699894Y-85729790D01*
X72850213Y-85880109D01*
X73022179Y-86005048D01*
X73022181Y-86005049D01*
X73022184Y-86005051D01*
X73211588Y-86101557D01*
X73413757Y-86167246D01*
X73623713Y-86200500D01*
X73623714Y-86200500D01*
X73836284Y-86200500D01*
X73836287Y-86200500D01*
X73931731Y-86185382D01*
X73937153Y-86186083D01*
X73942280Y-86184171D01*
X73971432Y-86190512D01*
X74001020Y-86194336D01*
X74006624Y-86198168D01*
X74010553Y-86199023D01*
X74038807Y-86220174D01*
X74213181Y-86394548D01*
X74246666Y-86455871D01*
X74249500Y-86482229D01*
X74249500Y-107662779D01*
X74229815Y-107729818D01*
X74198385Y-107763097D01*
X74120211Y-107819893D01*
X74120205Y-107819898D01*
X73969890Y-107970213D01*
X73844949Y-108142182D01*
X73840484Y-108150946D01*
X73792509Y-108201742D01*
X73724688Y-108218536D01*
X73658553Y-108195998D01*
X73619516Y-108150946D01*
X73615050Y-108142182D01*
X73490109Y-107970213D01*
X73339786Y-107819890D01*
X73163875Y-107692085D01*
X73164851Y-107690740D01*
X73122834Y-107644295D01*
X73110500Y-107590382D01*
X73110500Y-90895928D01*
X73085502Y-90770261D01*
X73085501Y-90770260D01*
X73085501Y-90770256D01*
X73036465Y-90651873D01*
X72965277Y-90545331D01*
X72965275Y-90545329D01*
X72965273Y-90545326D01*
X69186819Y-86766872D01*
X69153334Y-86705549D01*
X69150500Y-86679191D01*
X69150500Y-82784713D01*
X69159939Y-82737260D01*
X69173580Y-82704328D01*
X69200500Y-82568993D01*
X69200500Y-82431007D01*
X69200500Y-82431004D01*
X69173581Y-82295677D01*
X69173580Y-82295676D01*
X69173580Y-82295672D01*
X69146427Y-82230119D01*
X69120778Y-82168195D01*
X69120776Y-82168191D01*
X69120775Y-82168189D01*
X69044114Y-82053458D01*
X69044112Y-82053455D01*
X68946545Y-81955888D01*
X68946541Y-81955885D01*
X68831817Y-81879228D01*
X68831804Y-81879221D01*
X68704332Y-81826421D01*
X68704322Y-81826418D01*
X68568995Y-81799500D01*
X68568993Y-81799500D01*
X68431007Y-81799500D01*
X68431005Y-81799500D01*
X68295677Y-81826418D01*
X68295667Y-81826421D01*
X68168195Y-81879221D01*
X68168182Y-81879228D01*
X68053458Y-81955885D01*
X68053454Y-81955888D01*
X67955888Y-82053454D01*
X67955885Y-82053458D01*
X67879228Y-82168182D01*
X67879221Y-82168195D01*
X67826421Y-82295667D01*
X67826418Y-82295677D01*
X67799500Y-82431004D01*
X67799500Y-82431007D01*
X67799500Y-82568993D01*
X67799500Y-82568995D01*
X67799499Y-82568995D01*
X67826418Y-82704322D01*
X67826420Y-82704328D01*
X67840061Y-82737260D01*
X67849500Y-82784713D01*
X67849500Y-87064069D01*
X67849500Y-87064071D01*
X67849499Y-87064071D01*
X67870210Y-87168187D01*
X67870211Y-87168187D01*
X67870211Y-87168189D01*
X67874499Y-87189744D01*
X67899017Y-87248935D01*
X67923534Y-87308125D01*
X67994726Y-87414673D01*
X67994727Y-87414674D01*
X71773181Y-91193127D01*
X71806666Y-91254450D01*
X71809500Y-91280808D01*
X71809500Y-107590382D01*
X71789815Y-107657421D01*
X71755408Y-107691099D01*
X71756125Y-107692085D01*
X71580213Y-107819890D01*
X71429890Y-107970213D01*
X71304949Y-108142182D01*
X71300484Y-108150946D01*
X71252509Y-108201742D01*
X71184688Y-108218536D01*
X71118553Y-108195998D01*
X71079516Y-108150946D01*
X71075050Y-108142182D01*
X70950109Y-107970213D01*
X70799786Y-107819890D01*
X70623875Y-107692085D01*
X70624851Y-107690740D01*
X70582834Y-107644295D01*
X70570500Y-107590382D01*
X70570500Y-92355928D01*
X70545502Y-92230260D01*
X70545500Y-92230254D01*
X70525189Y-92181221D01*
X70525187Y-92181216D01*
X70496468Y-92111878D01*
X70496462Y-92111868D01*
X70425278Y-92005332D01*
X70425272Y-92005325D01*
X65186819Y-86766872D01*
X65153334Y-86705549D01*
X65150500Y-86679191D01*
X65150500Y-83478591D01*
X65170185Y-83411552D01*
X65218206Y-83368106D01*
X65286431Y-83333344D01*
X65286430Y-83333344D01*
X65286433Y-83333343D01*
X65477510Y-83194517D01*
X65644517Y-83027510D01*
X65783343Y-82836433D01*
X65890568Y-82625992D01*
X65963553Y-82401368D01*
X65980293Y-82295677D01*
X66000500Y-82168097D01*
X66000500Y-81331947D01*
X84000000Y-81331947D01*
X84000000Y-81450000D01*
X84980385Y-81450000D01*
X84940889Y-81518409D01*
X84900000Y-81671009D01*
X84900000Y-81828991D01*
X84940889Y-81981591D01*
X84980385Y-82050000D01*
X84000000Y-82050000D01*
X84000000Y-82168052D01*
X84036934Y-82401247D01*
X84109897Y-82625802D01*
X84217085Y-82836171D01*
X84355866Y-83027186D01*
X84522813Y-83194133D01*
X84713828Y-83332914D01*
X84924195Y-83440102D01*
X85148744Y-83513063D01*
X85148750Y-83513065D01*
X85200000Y-83521182D01*
X85200000Y-82269614D01*
X85268409Y-82309111D01*
X85421009Y-82350000D01*
X85578991Y-82350000D01*
X85731591Y-82309111D01*
X85800000Y-82269614D01*
X85800000Y-83521181D01*
X85851249Y-83513065D01*
X85851255Y-83513063D01*
X86075804Y-83440102D01*
X86286171Y-83332914D01*
X86477186Y-83194133D01*
X86644133Y-83027186D01*
X86782914Y-82836171D01*
X86890102Y-82625802D01*
X86963065Y-82401247D01*
X87000000Y-82168052D01*
X87000000Y-82050000D01*
X86019615Y-82050000D01*
X86059111Y-81981591D01*
X86100000Y-81828991D01*
X86100000Y-81671009D01*
X86059111Y-81518409D01*
X86019615Y-81450000D01*
X87000000Y-81450000D01*
X87000000Y-81331947D01*
X86999993Y-81331902D01*
X88999500Y-81331902D01*
X88999500Y-82168097D01*
X89036446Y-82401368D01*
X89109433Y-82625996D01*
X89177737Y-82760048D01*
X89216657Y-82836433D01*
X89355483Y-83027510D01*
X89522490Y-83194517D01*
X89713567Y-83333343D01*
X89812991Y-83384002D01*
X89924003Y-83440566D01*
X89924005Y-83440566D01*
X89924008Y-83440568D01*
X90041030Y-83478591D01*
X90148631Y-83513553D01*
X90381903Y-83550500D01*
X90381908Y-83550500D01*
X90618097Y-83550500D01*
X90851368Y-83513553D01*
X90852876Y-83513063D01*
X91075992Y-83440568D01*
X91286433Y-83333343D01*
X91477510Y-83194517D01*
X91644517Y-83027510D01*
X91783343Y-82836433D01*
X91890568Y-82625992D01*
X91963553Y-82401368D01*
X91980293Y-82295677D01*
X92000500Y-82168097D01*
X92000500Y-81331902D01*
X91963553Y-81098631D01*
X91890566Y-80874003D01*
X91834002Y-80762991D01*
X91783343Y-80663567D01*
X91644517Y-80472490D01*
X91477510Y-80305483D01*
X91286433Y-80166657D01*
X91286429Y-80166655D01*
X91075996Y-80059433D01*
X90851368Y-79986446D01*
X90618097Y-79949500D01*
X90618092Y-79949500D01*
X90381908Y-79949500D01*
X90381903Y-79949500D01*
X90148631Y-79986446D01*
X89924003Y-80059433D01*
X89713566Y-80166657D01*
X89604550Y-80245862D01*
X89522490Y-80305483D01*
X89522488Y-80305485D01*
X89522487Y-80305485D01*
X89355485Y-80472487D01*
X89355485Y-80472488D01*
X89355483Y-80472490D01*
X89295862Y-80554550D01*
X89216657Y-80663566D01*
X89109433Y-80874003D01*
X89036446Y-81098631D01*
X88999500Y-81331902D01*
X86999993Y-81331902D01*
X86963065Y-81098752D01*
X86890102Y-80874197D01*
X86782914Y-80663828D01*
X86644133Y-80472813D01*
X86477186Y-80305866D01*
X86286171Y-80167085D01*
X86075802Y-80059897D01*
X85851247Y-79986934D01*
X85800000Y-79978817D01*
X85800000Y-81230385D01*
X85731591Y-81190889D01*
X85578991Y-81150000D01*
X85421009Y-81150000D01*
X85268409Y-81190889D01*
X85200000Y-81230385D01*
X85200000Y-79978817D01*
X85199999Y-79978817D01*
X85148752Y-79986934D01*
X84924197Y-80059897D01*
X84713828Y-80167085D01*
X84522813Y-80305866D01*
X84355866Y-80472813D01*
X84217085Y-80663828D01*
X84109897Y-80874197D01*
X84036934Y-81098752D01*
X84000000Y-81331947D01*
X66000500Y-81331947D01*
X66000500Y-81331902D01*
X65963553Y-81098631D01*
X65890566Y-80874003D01*
X65834002Y-80762991D01*
X65783343Y-80663567D01*
X65644517Y-80472490D01*
X65477510Y-80305483D01*
X65286433Y-80166657D01*
X65286432Y-80166656D01*
X65286430Y-80166655D01*
X65218204Y-80131891D01*
X65167408Y-80083916D01*
X65150500Y-80021407D01*
X65150500Y-76406879D01*
X65170185Y-76339840D01*
X65222989Y-76294085D01*
X65292147Y-76284141D01*
X65355703Y-76313166D01*
X65374816Y-76333991D01*
X65379066Y-76339840D01*
X65431758Y-76412365D01*
X65587636Y-76568243D01*
X65587641Y-76568247D01*
X65669270Y-76627553D01*
X65765978Y-76697815D01*
X65894375Y-76763237D01*
X65962393Y-76797895D01*
X65962396Y-76797896D01*
X66067221Y-76831955D01*
X66172049Y-76866015D01*
X66389778Y-76900500D01*
X66389779Y-76900500D01*
X66610221Y-76900500D01*
X66610222Y-76900500D01*
X66827951Y-76866015D01*
X67037606Y-76797895D01*
X67234022Y-76697815D01*
X67412365Y-76568242D01*
X67464095Y-76516511D01*
X67525417Y-76483026D01*
X67595109Y-76488010D01*
X67639457Y-76516511D01*
X67750500Y-76627554D01*
X67750505Y-76627558D01*
X67847203Y-76697812D01*
X67897006Y-76733996D01*
X68002484Y-76787740D01*
X68058360Y-76816211D01*
X68058363Y-76816212D01*
X68144476Y-76844191D01*
X68230591Y-76872171D01*
X68313429Y-76885291D01*
X68409449Y-76900500D01*
X68409454Y-76900500D01*
X68590551Y-76900500D01*
X68677259Y-76886765D01*
X68769409Y-76872171D01*
X68941639Y-76816211D01*
X69102994Y-76733996D01*
X69249501Y-76627553D01*
X69377553Y-76499501D01*
X69483996Y-76352994D01*
X69566211Y-76191639D01*
X69622171Y-76019409D01*
X69649003Y-75850000D01*
X69650500Y-75840551D01*
X69650500Y-75840506D01*
X80350000Y-75840506D01*
X80378317Y-76019293D01*
X80434251Y-76191444D01*
X80434252Y-76191447D01*
X80516434Y-76352734D01*
X80622823Y-76499169D01*
X80750830Y-76627176D01*
X80897265Y-76733565D01*
X81058552Y-76815747D01*
X81058558Y-76815749D01*
X81199999Y-76861705D01*
X81200000Y-76861704D01*
X81200000Y-75800000D01*
X80350000Y-75800000D01*
X80350000Y-75840506D01*
X69650500Y-75840506D01*
X69650500Y-75453922D01*
X81150000Y-75453922D01*
X81150000Y-75546078D01*
X81173852Y-75635095D01*
X81219930Y-75714905D01*
X81285095Y-75780070D01*
X81364905Y-75826148D01*
X81453922Y-75850000D01*
X81546078Y-75850000D01*
X81635095Y-75826148D01*
X81714905Y-75780070D01*
X81780070Y-75714905D01*
X81800000Y-75680384D01*
X81800000Y-76861705D01*
X81941441Y-76815749D01*
X81941447Y-76815747D01*
X82102734Y-76733565D01*
X82249167Y-76627177D01*
X82360187Y-76516157D01*
X82421510Y-76482672D01*
X82491202Y-76487656D01*
X82535550Y-76516157D01*
X82587636Y-76568243D01*
X82587641Y-76568247D01*
X82669270Y-76627553D01*
X82765978Y-76697815D01*
X82894375Y-76763237D01*
X82962393Y-76797895D01*
X82962396Y-76797896D01*
X83067221Y-76831955D01*
X83172049Y-76866015D01*
X83389778Y-76900500D01*
X83389779Y-76900500D01*
X83610221Y-76900500D01*
X83610222Y-76900500D01*
X83827951Y-76866015D01*
X84037606Y-76797895D01*
X84234022Y-76697815D01*
X84412365Y-76568242D01*
X84568242Y-76412365D01*
X84697815Y-76234022D01*
X84797895Y-76037606D01*
X84866015Y-75827951D01*
X84900500Y-75610222D01*
X84900500Y-75389778D01*
X91099500Y-75389778D01*
X91099500Y-75610221D01*
X91133985Y-75827952D01*
X91202103Y-76037603D01*
X91202104Y-76037606D01*
X91302187Y-76234025D01*
X91431752Y-76412358D01*
X91431756Y-76412363D01*
X91587636Y-76568243D01*
X91587641Y-76568247D01*
X91669270Y-76627553D01*
X91765978Y-76697815D01*
X91894375Y-76763237D01*
X91962393Y-76797895D01*
X91962396Y-76797896D01*
X92067221Y-76831955D01*
X92172049Y-76866015D01*
X92389778Y-76900500D01*
X92389779Y-76900500D01*
X92610221Y-76900500D01*
X92610222Y-76900500D01*
X92827951Y-76866015D01*
X93037606Y-76797895D01*
X93234022Y-76697815D01*
X93412365Y-76568242D01*
X93464095Y-76516511D01*
X93525417Y-76483026D01*
X93595109Y-76488010D01*
X93639457Y-76516511D01*
X93750500Y-76627554D01*
X93750505Y-76627558D01*
X93847203Y-76697812D01*
X93897006Y-76733996D01*
X94002484Y-76787740D01*
X94058360Y-76816211D01*
X94058363Y-76816212D01*
X94144476Y-76844191D01*
X94230591Y-76872171D01*
X94313429Y-76885291D01*
X94409449Y-76900500D01*
X94409454Y-76900500D01*
X94590551Y-76900500D01*
X94677259Y-76886765D01*
X94769409Y-76872171D01*
X94941639Y-76816211D01*
X95102994Y-76733996D01*
X95249501Y-76627553D01*
X95377553Y-76499501D01*
X95483996Y-76352994D01*
X95566211Y-76191639D01*
X95622171Y-76019409D01*
X95649003Y-75850000D01*
X95650500Y-75840551D01*
X95650500Y-75159448D01*
X95622189Y-74980706D01*
X95622171Y-74980591D01*
X95566211Y-74808361D01*
X95566211Y-74808360D01*
X95537740Y-74752484D01*
X95483996Y-74647006D01*
X95440865Y-74587641D01*
X95377558Y-74500505D01*
X95377554Y-74500500D01*
X95249499Y-74372445D01*
X95249494Y-74372441D01*
X95102997Y-74266006D01*
X95102996Y-74266005D01*
X95102994Y-74266004D01*
X95051300Y-74239664D01*
X94941639Y-74183788D01*
X94941636Y-74183787D01*
X94769410Y-74127829D01*
X94590551Y-74099500D01*
X94590546Y-74099500D01*
X94409454Y-74099500D01*
X94409449Y-74099500D01*
X94230589Y-74127829D01*
X94058363Y-74183787D01*
X94058360Y-74183788D01*
X93897002Y-74266006D01*
X93750506Y-74372440D01*
X93639457Y-74483489D01*
X93578134Y-74516973D01*
X93508442Y-74511989D01*
X93464095Y-74483488D01*
X93412363Y-74431756D01*
X93412358Y-74431752D01*
X93234025Y-74302187D01*
X93234024Y-74302186D01*
X93234022Y-74302185D01*
X93171096Y-74270122D01*
X93037606Y-74202104D01*
X93037603Y-74202103D01*
X92827952Y-74133985D01*
X92719086Y-74116742D01*
X92610222Y-74099500D01*
X92389778Y-74099500D01*
X92317201Y-74110995D01*
X92172047Y-74133985D01*
X91962396Y-74202103D01*
X91962393Y-74202104D01*
X91765974Y-74302187D01*
X91587641Y-74431752D01*
X91587636Y-74431756D01*
X91431756Y-74587636D01*
X91431752Y-74587641D01*
X91302187Y-74765974D01*
X91202104Y-74962393D01*
X91202103Y-74962396D01*
X91133985Y-75172047D01*
X91099500Y-75389778D01*
X84900500Y-75389778D01*
X84866015Y-75172049D01*
X84803845Y-74980706D01*
X84797896Y-74962396D01*
X84797895Y-74962393D01*
X84719509Y-74808555D01*
X84697815Y-74765978D01*
X84625181Y-74666005D01*
X84568247Y-74587641D01*
X84568243Y-74587636D01*
X84412363Y-74431756D01*
X84412358Y-74431752D01*
X84234025Y-74302187D01*
X84234024Y-74302186D01*
X84234022Y-74302185D01*
X84171096Y-74270122D01*
X84037606Y-74202104D01*
X84037603Y-74202103D01*
X83827952Y-74133985D01*
X83719086Y-74116742D01*
X83610222Y-74099500D01*
X83389778Y-74099500D01*
X83317201Y-74110995D01*
X83172047Y-74133985D01*
X82962396Y-74202103D01*
X82962393Y-74202104D01*
X82765974Y-74302187D01*
X82587638Y-74431754D01*
X82535548Y-74483843D01*
X82474224Y-74517327D01*
X82404532Y-74512341D01*
X82360187Y-74483841D01*
X82249169Y-74372823D01*
X82102734Y-74266434D01*
X81941449Y-74184254D01*
X81800000Y-74138294D01*
X81800000Y-75319615D01*
X81780070Y-75285095D01*
X81714905Y-75219930D01*
X81635095Y-75173852D01*
X81546078Y-75150000D01*
X81453922Y-75150000D01*
X81364905Y-75173852D01*
X81285095Y-75219930D01*
X81219930Y-75285095D01*
X81173852Y-75364905D01*
X81150000Y-75453922D01*
X69650500Y-75453922D01*
X69650500Y-75159493D01*
X80350000Y-75159493D01*
X80350000Y-75200000D01*
X81200000Y-75200000D01*
X81200000Y-74138294D01*
X81199999Y-74138294D01*
X81058550Y-74184254D01*
X80897265Y-74266434D01*
X80750830Y-74372823D01*
X80622823Y-74500830D01*
X80516434Y-74647265D01*
X80434252Y-74808552D01*
X80434251Y-74808555D01*
X80378317Y-74980706D01*
X80350000Y-75159493D01*
X69650500Y-75159493D01*
X69650500Y-75159448D01*
X69622189Y-74980706D01*
X69622171Y-74980591D01*
X69566211Y-74808361D01*
X69566211Y-74808360D01*
X69537740Y-74752484D01*
X69483996Y-74647006D01*
X69440865Y-74587641D01*
X69377558Y-74500505D01*
X69377554Y-74500500D01*
X69249499Y-74372445D01*
X69249494Y-74372441D01*
X69102997Y-74266006D01*
X69102996Y-74266005D01*
X69102994Y-74266004D01*
X69051300Y-74239664D01*
X68941639Y-74183788D01*
X68941636Y-74183787D01*
X68769410Y-74127829D01*
X68590551Y-74099500D01*
X68590546Y-74099500D01*
X68409454Y-74099500D01*
X68409449Y-74099500D01*
X68230589Y-74127829D01*
X68058363Y-74183787D01*
X68058360Y-74183788D01*
X67897002Y-74266006D01*
X67750506Y-74372440D01*
X67639457Y-74483489D01*
X67578134Y-74516973D01*
X67508442Y-74511989D01*
X67464095Y-74483488D01*
X67412363Y-74431756D01*
X67412358Y-74431752D01*
X67234025Y-74302187D01*
X67234024Y-74302186D01*
X67234022Y-74302185D01*
X67171096Y-74270122D01*
X67037606Y-74202104D01*
X67037603Y-74202103D01*
X66827952Y-74133985D01*
X66719086Y-74116742D01*
X66610222Y-74099500D01*
X66389778Y-74099500D01*
X66317201Y-74110995D01*
X66172047Y-74133985D01*
X65962396Y-74202103D01*
X65962393Y-74202104D01*
X65765974Y-74302187D01*
X65587641Y-74431752D01*
X65587636Y-74431756D01*
X65431756Y-74587636D01*
X65431752Y-74587641D01*
X65374818Y-74666005D01*
X65319488Y-74708671D01*
X65249875Y-74714650D01*
X65188080Y-74682044D01*
X65153723Y-74621206D01*
X65150500Y-74593120D01*
X65150500Y-70978591D01*
X65170185Y-70911552D01*
X65218206Y-70868106D01*
X65286431Y-70833344D01*
X65286430Y-70833344D01*
X65286433Y-70833343D01*
X65477510Y-70694517D01*
X65644517Y-70527510D01*
X65783343Y-70336433D01*
X65890568Y-70125992D01*
X65963553Y-69901368D01*
X65978165Y-69809111D01*
X66000500Y-69668097D01*
X66000500Y-68831947D01*
X84000000Y-68831947D01*
X84000000Y-68950000D01*
X84980385Y-68950000D01*
X84940889Y-69018409D01*
X84900000Y-69171009D01*
X84900000Y-69328991D01*
X84940889Y-69481591D01*
X84980385Y-69550000D01*
X84000000Y-69550000D01*
X84000000Y-69668052D01*
X84036934Y-69901247D01*
X84109897Y-70125802D01*
X84217085Y-70336171D01*
X84355866Y-70527186D01*
X84522813Y-70694133D01*
X84713828Y-70832914D01*
X84924195Y-70940102D01*
X85148744Y-71013063D01*
X85148750Y-71013065D01*
X85200000Y-71021182D01*
X85200000Y-69769614D01*
X85268409Y-69809111D01*
X85421009Y-69850000D01*
X85578991Y-69850000D01*
X85731591Y-69809111D01*
X85800000Y-69769614D01*
X85800000Y-71021181D01*
X85851249Y-71013065D01*
X85851255Y-71013063D01*
X86075804Y-70940102D01*
X86286171Y-70832914D01*
X86477186Y-70694133D01*
X86644133Y-70527186D01*
X86782914Y-70336171D01*
X86890102Y-70125802D01*
X86963065Y-69901247D01*
X87000000Y-69668052D01*
X87000000Y-69550000D01*
X86019615Y-69550000D01*
X86059111Y-69481591D01*
X86100000Y-69328991D01*
X86100000Y-69171009D01*
X86059111Y-69018409D01*
X86019615Y-68950000D01*
X87000000Y-68950000D01*
X87000000Y-68831947D01*
X86999993Y-68831902D01*
X88999500Y-68831902D01*
X88999500Y-69668097D01*
X89036446Y-69901368D01*
X89109433Y-70125996D01*
X89216524Y-70336171D01*
X89216657Y-70336433D01*
X89355483Y-70527510D01*
X89522490Y-70694517D01*
X89713567Y-70833343D01*
X89812991Y-70884002D01*
X89924003Y-70940566D01*
X89924005Y-70940566D01*
X89924008Y-70940568D01*
X90041030Y-70978591D01*
X90148631Y-71013553D01*
X90381903Y-71050500D01*
X90381908Y-71050500D01*
X90618097Y-71050500D01*
X90851368Y-71013553D01*
X90852876Y-71013063D01*
X91075992Y-70940568D01*
X91286433Y-70833343D01*
X91477510Y-70694517D01*
X91644517Y-70527510D01*
X91783343Y-70336433D01*
X91890568Y-70125992D01*
X91963553Y-69901368D01*
X91978165Y-69809111D01*
X92000500Y-69668097D01*
X92000500Y-68831902D01*
X91963553Y-68598631D01*
X91890566Y-68374003D01*
X91834002Y-68262991D01*
X91783343Y-68163567D01*
X91644517Y-67972490D01*
X91477510Y-67805483D01*
X91286433Y-67666657D01*
X91075996Y-67559433D01*
X90851368Y-67486446D01*
X90618097Y-67449500D01*
X90618092Y-67449500D01*
X90381908Y-67449500D01*
X90381903Y-67449500D01*
X90148631Y-67486446D01*
X89924003Y-67559433D01*
X89713566Y-67666657D01*
X89604550Y-67745862D01*
X89522490Y-67805483D01*
X89522488Y-67805485D01*
X89522487Y-67805485D01*
X89355485Y-67972487D01*
X89355485Y-67972488D01*
X89355483Y-67972490D01*
X89295862Y-68054550D01*
X89216657Y-68163566D01*
X89109433Y-68374003D01*
X89036446Y-68598631D01*
X88999500Y-68831902D01*
X86999993Y-68831902D01*
X86963065Y-68598752D01*
X86890102Y-68374197D01*
X86782914Y-68163828D01*
X86644133Y-67972813D01*
X86477186Y-67805866D01*
X86286171Y-67667085D01*
X86075802Y-67559897D01*
X85851247Y-67486934D01*
X85800000Y-67478817D01*
X85800000Y-68730385D01*
X85731591Y-68690889D01*
X85578991Y-68650000D01*
X85421009Y-68650000D01*
X85268409Y-68690889D01*
X85200000Y-68730385D01*
X85200000Y-67478817D01*
X85199999Y-67478817D01*
X85148752Y-67486934D01*
X84924197Y-67559897D01*
X84713828Y-67667085D01*
X84522813Y-67805866D01*
X84355866Y-67972813D01*
X84217085Y-68163828D01*
X84109897Y-68374197D01*
X84036934Y-68598752D01*
X84000000Y-68831947D01*
X66000500Y-68831947D01*
X66000500Y-68831902D01*
X65963553Y-68598631D01*
X65890566Y-68374003D01*
X65834002Y-68262991D01*
X65783343Y-68163567D01*
X65644517Y-67972490D01*
X65477510Y-67805483D01*
X65286433Y-67666657D01*
X65075996Y-67559433D01*
X64851368Y-67486446D01*
X64618097Y-67449500D01*
X64618092Y-67449500D01*
X64381908Y-67449500D01*
X64381903Y-67449500D01*
X64148631Y-67486446D01*
X63924003Y-67559433D01*
X63713566Y-67666657D01*
X63604550Y-67745862D01*
X63522490Y-67805483D01*
X63522488Y-67805485D01*
X63522487Y-67805485D01*
X63355485Y-67972487D01*
X63355485Y-67972488D01*
X63355483Y-67972490D01*
X63295862Y-68054550D01*
X63216657Y-68163566D01*
X63109433Y-68374003D01*
X63036446Y-68598631D01*
X62999500Y-68831902D01*
X62999500Y-69668097D01*
X63036446Y-69901368D01*
X63109433Y-70125996D01*
X63216524Y-70336171D01*
X63216657Y-70336433D01*
X63355483Y-70527510D01*
X63522490Y-70694517D01*
X63665797Y-70798636D01*
X63713568Y-70833344D01*
X63781794Y-70868106D01*
X63832590Y-70916080D01*
X63849500Y-70978591D01*
X63849500Y-80021407D01*
X63829815Y-80088446D01*
X63781796Y-80131891D01*
X63713569Y-80166655D01*
X63618028Y-80236070D01*
X63522490Y-80305483D01*
X63522488Y-80305485D01*
X63522487Y-80305485D01*
X63355485Y-80472487D01*
X63355485Y-80472488D01*
X63355483Y-80472490D01*
X63295862Y-80554550D01*
X63216657Y-80663566D01*
X63109433Y-80874003D01*
X63036446Y-81098631D01*
X62999500Y-81331902D01*
X62999500Y-82168097D01*
X63036446Y-82401368D01*
X63109433Y-82625996D01*
X63177737Y-82760048D01*
X63216657Y-82836433D01*
X63355483Y-83027510D01*
X63522490Y-83194517D01*
X63665797Y-83298636D01*
X63713568Y-83333344D01*
X63781794Y-83368106D01*
X63832590Y-83416080D01*
X63849500Y-83478591D01*
X63849500Y-87064069D01*
X63849500Y-87064071D01*
X63849499Y-87064071D01*
X63870210Y-87168187D01*
X63870211Y-87168187D01*
X63870211Y-87168189D01*
X63874499Y-87189744D01*
X63899017Y-87248935D01*
X63923534Y-87308125D01*
X63994726Y-87414673D01*
X63994727Y-87414674D01*
X69233181Y-92653127D01*
X69266666Y-92714450D01*
X69269500Y-92740808D01*
X69269500Y-98408770D01*
X69249815Y-98475809D01*
X69197011Y-98521564D01*
X69127853Y-98531508D01*
X69064297Y-98502483D01*
X69057819Y-98496451D01*
X68978419Y-98417051D01*
X68978415Y-98417048D01*
X68855501Y-98334919D01*
X68855488Y-98334912D01*
X68718917Y-98278343D01*
X68718907Y-98278340D01*
X68573920Y-98249500D01*
X68573918Y-98249500D01*
X60426082Y-98249500D01*
X60426080Y-98249500D01*
X60281092Y-98278340D01*
X60281086Y-98278342D01*
X60144508Y-98334914D01*
X60144496Y-98334921D01*
X60095269Y-98367813D01*
X60021588Y-98417044D01*
X60021580Y-98417050D01*
X56365098Y-102073532D01*
X56303775Y-102107017D01*
X56234083Y-102102033D01*
X56204531Y-102086168D01*
X56155407Y-102050476D01*
X55978787Y-101960485D01*
X55927990Y-101912511D01*
X55911195Y-101844690D01*
X55933732Y-101778555D01*
X55978787Y-101739515D01*
X56155403Y-101649525D01*
X56155402Y-101649525D01*
X56155405Y-101649524D01*
X56314646Y-101533828D01*
X56453828Y-101394646D01*
X56569524Y-101235405D01*
X56658884Y-101060025D01*
X56719709Y-100872826D01*
X56750500Y-100678422D01*
X56750500Y-100481577D01*
X56719709Y-100287173D01*
X56658882Y-100099970D01*
X56569523Y-99924594D01*
X56453828Y-99765354D01*
X56314646Y-99626172D01*
X56235025Y-99568324D01*
X56155403Y-99510474D01*
X55978787Y-99420485D01*
X55927990Y-99372511D01*
X55911195Y-99304690D01*
X55933732Y-99238555D01*
X55978787Y-99199515D01*
X56155403Y-99109525D01*
X56155402Y-99109525D01*
X56155405Y-99109524D01*
X56314646Y-98993828D01*
X56453828Y-98854646D01*
X56569524Y-98695405D01*
X56658884Y-98520025D01*
X56719709Y-98332826D01*
X56728338Y-98278343D01*
X56750500Y-98138422D01*
X56750500Y-97941577D01*
X56719709Y-97747173D01*
X56658882Y-97559970D01*
X56569523Y-97384594D01*
X56453828Y-97225354D01*
X56314646Y-97086172D01*
X56160690Y-96974315D01*
X56118026Y-96918987D01*
X56112047Y-96849373D01*
X56144653Y-96787578D01*
X56205492Y-96753221D01*
X56233577Y-96749999D01*
X56381479Y-96749999D01*
X56475149Y-96735164D01*
X56475155Y-96735162D01*
X56588041Y-96677643D01*
X56588050Y-96677636D01*
X56677636Y-96588050D01*
X56677639Y-96588046D01*
X56735166Y-96475144D01*
X56750000Y-96381486D01*
X56750000Y-95800000D01*
X55904144Y-95800000D01*
X55965925Y-95692993D01*
X56000000Y-95565826D01*
X56000000Y-95434174D01*
X55965925Y-95307007D01*
X55904144Y-95200000D01*
X56749999Y-95200000D01*
X56749999Y-94618520D01*
X56735164Y-94524850D01*
X56735162Y-94524844D01*
X56677643Y-94411958D01*
X56677636Y-94411949D01*
X56588050Y-94322363D01*
X56588046Y-94322360D01*
X56475144Y-94264833D01*
X56381486Y-94250000D01*
X55800000Y-94250000D01*
X55800000Y-95095855D01*
X55692993Y-95034075D01*
X55565826Y-95000000D01*
X55434174Y-95000000D01*
X55307007Y-95034075D01*
X55200000Y-95095855D01*
X55200000Y-94250000D01*
X54618520Y-94250000D01*
X54524850Y-94264835D01*
X54524844Y-94264837D01*
X54411958Y-94322356D01*
X54411949Y-94322363D01*
X54322363Y-94411949D01*
X54322360Y-94411953D01*
X54264833Y-94524855D01*
X54250000Y-94618513D01*
X54250000Y-95200000D01*
X55095856Y-95200000D01*
X55034075Y-95307007D01*
X55000000Y-95434174D01*
X55000000Y-95565826D01*
X55034075Y-95692993D01*
X55095856Y-95800000D01*
X54250001Y-95800000D01*
X54250001Y-96381479D01*
X54264835Y-96475149D01*
X54264837Y-96475155D01*
X54322356Y-96588041D01*
X54322363Y-96588050D01*
X54411949Y-96677636D01*
X54411953Y-96677639D01*
X54524855Y-96735166D01*
X54618514Y-96749999D01*
X54766420Y-96749999D01*
X54833460Y-96769683D01*
X54879215Y-96822487D01*
X54889159Y-96891645D01*
X54860134Y-96955201D01*
X54839307Y-96974316D01*
X54685360Y-97086167D01*
X54685351Y-97086174D01*
X54546174Y-97225351D01*
X54546174Y-97225352D01*
X54546172Y-97225354D01*
X54496485Y-97293741D01*
X54430476Y-97384594D01*
X54341117Y-97559970D01*
X54280290Y-97747173D01*
X54249500Y-97941577D01*
X54249500Y-98138422D01*
X54280290Y-98332826D01*
X54341117Y-98520029D01*
X54385173Y-98606493D01*
X54430476Y-98695405D01*
X54546172Y-98854646D01*
X54685354Y-98993828D01*
X54844595Y-99109524D01*
X54940267Y-99158271D01*
X55021213Y-99199515D01*
X55072009Y-99247489D01*
X55088804Y-99315310D01*
X55066267Y-99381445D01*
X55021213Y-99420485D01*
X54844594Y-99510476D01*
X54753741Y-99576485D01*
X54685354Y-99626172D01*
X54685352Y-99626174D01*
X54685351Y-99626174D01*
X54546174Y-99765351D01*
X54546174Y-99765352D01*
X54546172Y-99765354D01*
X54530577Y-99786819D01*
X54430476Y-99924594D01*
X54341117Y-100099970D01*
X54280290Y-100287173D01*
X54249500Y-100481577D01*
X54249500Y-100678422D01*
X54280290Y-100872826D01*
X54341117Y-101060029D01*
X54430476Y-101235405D01*
X54546172Y-101394646D01*
X54685354Y-101533828D01*
X54844595Y-101649524D01*
X54967992Y-101712397D01*
X55021213Y-101739515D01*
X55072009Y-101787489D01*
X55088804Y-101855310D01*
X55066267Y-101921445D01*
X55021213Y-101960485D01*
X54844594Y-102050476D01*
X54812861Y-102073532D01*
X54685354Y-102166172D01*
X54685352Y-102166174D01*
X54685351Y-102166174D01*
X54546174Y-102305351D01*
X54546174Y-102305352D01*
X54546172Y-102305354D01*
X54496485Y-102373741D01*
X54430476Y-102464594D01*
X54341117Y-102639970D01*
X54280290Y-102827173D01*
X54249500Y-103021577D01*
X54249500Y-103218422D01*
X54280290Y-103412826D01*
X54341117Y-103600029D01*
X54418645Y-103752186D01*
X54430476Y-103775405D01*
X54546172Y-103934646D01*
X54685354Y-104073828D01*
X54844595Y-104189524D01*
X54927455Y-104231743D01*
X55019970Y-104278882D01*
X55019972Y-104278882D01*
X55019975Y-104278884D01*
X55120317Y-104311487D01*
X55207173Y-104339709D01*
X55401578Y-104370500D01*
X55401583Y-104370500D01*
X55598422Y-104370500D01*
X55792826Y-104339709D01*
X55980025Y-104278884D01*
X56155405Y-104189524D01*
X56314646Y-104073828D01*
X56453828Y-103934646D01*
X56479765Y-103898946D01*
X56535092Y-103856282D01*
X56555879Y-103850218D01*
X56598913Y-103841658D01*
X56735495Y-103785084D01*
X56784729Y-103752186D01*
X56858416Y-103702952D01*
X60774549Y-99786819D01*
X60835872Y-99753334D01*
X60862230Y-99750500D01*
X68573920Y-99750500D01*
X68671462Y-99731096D01*
X68718913Y-99721658D01*
X68855495Y-99665084D01*
X68978416Y-99582951D01*
X68978983Y-99582384D01*
X69057819Y-99503549D01*
X69119142Y-99470064D01*
X69188834Y-99475048D01*
X69244767Y-99516920D01*
X69269184Y-99582384D01*
X69269500Y-99591230D01*
X69269500Y-107590382D01*
X69249815Y-107657421D01*
X69215408Y-107691099D01*
X69216125Y-107692085D01*
X69040213Y-107819890D01*
X68889890Y-107970213D01*
X68764949Y-108142182D01*
X68760484Y-108150946D01*
X68712509Y-108201742D01*
X68644688Y-108218536D01*
X68578553Y-108195998D01*
X68539516Y-108150946D01*
X68535050Y-108142182D01*
X68410109Y-107970213D01*
X68259786Y-107819890D01*
X68083875Y-107692085D01*
X68084851Y-107690740D01*
X68042834Y-107644295D01*
X68030500Y-107590382D01*
X68030500Y-106085928D01*
X68005502Y-105960261D01*
X68005501Y-105960260D01*
X68005501Y-105960256D01*
X67956465Y-105841873D01*
X67946140Y-105826420D01*
X67937056Y-105812825D01*
X67885275Y-105735328D01*
X67885272Y-105735325D01*
X65391295Y-103241349D01*
X65364415Y-103201121D01*
X65350775Y-103168189D01*
X65350770Y-103168182D01*
X65274114Y-103053457D01*
X65176545Y-102955888D01*
X65176541Y-102955885D01*
X65061817Y-102879228D01*
X65061804Y-102879221D01*
X64934332Y-102826421D01*
X64934322Y-102826418D01*
X64798995Y-102799500D01*
X64798993Y-102799500D01*
X64661007Y-102799500D01*
X64661005Y-102799500D01*
X64525677Y-102826418D01*
X64525667Y-102826421D01*
X64398195Y-102879221D01*
X64398182Y-102879228D01*
X64283458Y-102955885D01*
X64283454Y-102955888D01*
X64185888Y-103053454D01*
X64185885Y-103053458D01*
X64109228Y-103168182D01*
X64109221Y-103168195D01*
X64056421Y-103295667D01*
X64056418Y-103295677D01*
X64029500Y-103431004D01*
X64029500Y-103431007D01*
X64029500Y-103568993D01*
X64029500Y-103568995D01*
X64029499Y-103568995D01*
X64056418Y-103704322D01*
X64056421Y-103704332D01*
X64109221Y-103831804D01*
X64109228Y-103831817D01*
X64185885Y-103946541D01*
X64185888Y-103946545D01*
X64283457Y-104044114D01*
X64398183Y-104120771D01*
X64398189Y-104120775D01*
X64431121Y-104134415D01*
X64471349Y-104161295D01*
X65915891Y-105605837D01*
X65918370Y-105610378D01*
X65922699Y-105613219D01*
X65934947Y-105640736D01*
X65949376Y-105667160D01*
X65949006Y-105672321D01*
X65951112Y-105677051D01*
X65946540Y-105706814D01*
X65944392Y-105736852D01*
X65941289Y-105740996D01*
X65940504Y-105746111D01*
X65920566Y-105768678D01*
X65902520Y-105792785D01*
X65896746Y-105795640D01*
X65894244Y-105798473D01*
X65877691Y-105805064D01*
X65862000Y-105812825D01*
X65857238Y-105814173D01*
X65795672Y-105826420D01*
X65756049Y-105842832D01*
X65749077Y-105844807D01*
X65739349Y-105844713D01*
X65715287Y-105849500D01*
X61435929Y-105849500D01*
X61310261Y-105874497D01*
X61310255Y-105874499D01*
X61191870Y-105923535D01*
X61085331Y-105994722D01*
X61085324Y-105994728D01*
X57241349Y-109838703D01*
X57201123Y-109865582D01*
X57168192Y-109879222D01*
X57168186Y-109879226D01*
X57053462Y-109955882D01*
X57053454Y-109955888D01*
X56955888Y-110053454D01*
X56955885Y-110053458D01*
X56879228Y-110168182D01*
X56879221Y-110168195D01*
X56826421Y-110295667D01*
X56826418Y-110295677D01*
X56799500Y-110431004D01*
X56799500Y-110431007D01*
X56799500Y-110568993D01*
X56799500Y-110568995D01*
X56799499Y-110568995D01*
X56826418Y-110704322D01*
X56826421Y-110704332D01*
X56879221Y-110831804D01*
X56879228Y-110831817D01*
X56955885Y-110946541D01*
X56955888Y-110946545D01*
X57053454Y-111044111D01*
X57053458Y-111044114D01*
X57168182Y-111120771D01*
X57168195Y-111120778D01*
X57295667Y-111173578D01*
X57295672Y-111173580D01*
X57295676Y-111173580D01*
X57295677Y-111173581D01*
X57431004Y-111200500D01*
X57431007Y-111200500D01*
X57568995Y-111200500D01*
X57660041Y-111182389D01*
X57704328Y-111173580D01*
X57831811Y-111120775D01*
X57946542Y-111044114D01*
X58044114Y-110946542D01*
X58120775Y-110831811D01*
X58134415Y-110798877D01*
X58161293Y-110758651D01*
X61733127Y-107186819D01*
X61794450Y-107153334D01*
X61820808Y-107150500D01*
X65715287Y-107150500D01*
X65762739Y-107159938D01*
X65795672Y-107173580D01*
X65795676Y-107173580D01*
X65795677Y-107173581D01*
X65931004Y-107200500D01*
X65931007Y-107200500D01*
X66068995Y-107200500D01*
X66160041Y-107182389D01*
X66204328Y-107173580D01*
X66331811Y-107120775D01*
X66446542Y-107044114D01*
X66446545Y-107044111D01*
X66517819Y-106972838D01*
X66579142Y-106939353D01*
X66648834Y-106944337D01*
X66704767Y-106986209D01*
X66729184Y-107051673D01*
X66729500Y-107060519D01*
X66729500Y-107590382D01*
X66709815Y-107657421D01*
X66675408Y-107691099D01*
X66676125Y-107692085D01*
X66500213Y-107819890D01*
X66349890Y-107970213D01*
X66224949Y-108142182D01*
X66220484Y-108150946D01*
X66172509Y-108201742D01*
X66104688Y-108218536D01*
X66038553Y-108195998D01*
X65999516Y-108150946D01*
X65995050Y-108142182D01*
X65870109Y-107970213D01*
X65719786Y-107819890D01*
X65547820Y-107694951D01*
X65358414Y-107598444D01*
X65358413Y-107598443D01*
X65358412Y-107598443D01*
X65156243Y-107532754D01*
X65156241Y-107532753D01*
X65156240Y-107532753D01*
X64985590Y-107505725D01*
X64946287Y-107499500D01*
X64733713Y-107499500D01*
X64694410Y-107505725D01*
X64523760Y-107532753D01*
X64321585Y-107598444D01*
X64132179Y-107694951D01*
X63960213Y-107819890D01*
X63809890Y-107970213D01*
X63684951Y-108142179D01*
X63588444Y-108331585D01*
X63522753Y-108533760D01*
X63489500Y-108743713D01*
X63489500Y-109256286D01*
X63522703Y-109465925D01*
X63522754Y-109466243D01*
X63533722Y-109500000D01*
X63588444Y-109668414D01*
X63684951Y-109857820D01*
X63809890Y-110029786D01*
X63960213Y-110180109D01*
X64132179Y-110305048D01*
X64132181Y-110305049D01*
X64132184Y-110305051D01*
X64321588Y-110401557D01*
X64523757Y-110467246D01*
X64733713Y-110500500D01*
X64733714Y-110500500D01*
X64946286Y-110500500D01*
X64946287Y-110500500D01*
X65156243Y-110467246D01*
X65358412Y-110401557D01*
X65547816Y-110305051D01*
X65633243Y-110242985D01*
X65719786Y-110180109D01*
X65719788Y-110180106D01*
X65719792Y-110180104D01*
X65870104Y-110029792D01*
X65870106Y-110029788D01*
X65870109Y-110029786D01*
X65995048Y-109857820D01*
X65995047Y-109857820D01*
X65995051Y-109857816D01*
X65999514Y-109849054D01*
X66047488Y-109798259D01*
X66115308Y-109781463D01*
X66181444Y-109803999D01*
X66220486Y-109849056D01*
X66224951Y-109857820D01*
X66349890Y-110029786D01*
X66500213Y-110180109D01*
X66672179Y-110305048D01*
X66672181Y-110305049D01*
X66672184Y-110305051D01*
X66861588Y-110401557D01*
X67063757Y-110467246D01*
X67273713Y-110500500D01*
X67273714Y-110500500D01*
X67486286Y-110500500D01*
X67486287Y-110500500D01*
X67696243Y-110467246D01*
X67898412Y-110401557D01*
X68087816Y-110305051D01*
X68173243Y-110242985D01*
X68259786Y-110180109D01*
X68259788Y-110180106D01*
X68259792Y-110180104D01*
X68410104Y-110029792D01*
X68410106Y-110029788D01*
X68410109Y-110029786D01*
X68535048Y-109857820D01*
X68535047Y-109857820D01*
X68535051Y-109857816D01*
X68539514Y-109849054D01*
X68587488Y-109798259D01*
X68655308Y-109781463D01*
X68721444Y-109803999D01*
X68760486Y-109849056D01*
X68764951Y-109857820D01*
X68889890Y-110029786D01*
X69040213Y-110180109D01*
X69212179Y-110305048D01*
X69212181Y-110305049D01*
X69212184Y-110305051D01*
X69401588Y-110401557D01*
X69603757Y-110467246D01*
X69813713Y-110500500D01*
X69813714Y-110500500D01*
X70026286Y-110500500D01*
X70026287Y-110500500D01*
X70236243Y-110467246D01*
X70438412Y-110401557D01*
X70627816Y-110305051D01*
X70713243Y-110242985D01*
X70799786Y-110180109D01*
X70799788Y-110180106D01*
X70799792Y-110180104D01*
X70950104Y-110029792D01*
X70950106Y-110029788D01*
X70950109Y-110029786D01*
X71075048Y-109857820D01*
X71075047Y-109857820D01*
X71075051Y-109857816D01*
X71079514Y-109849054D01*
X71127488Y-109798259D01*
X71195308Y-109781463D01*
X71261444Y-109803999D01*
X71300486Y-109849056D01*
X71304951Y-109857820D01*
X71429890Y-110029786D01*
X71580213Y-110180109D01*
X71752179Y-110305048D01*
X71752181Y-110305049D01*
X71752184Y-110305051D01*
X71941588Y-110401557D01*
X72143757Y-110467246D01*
X72353713Y-110500500D01*
X72353714Y-110500500D01*
X72566286Y-110500500D01*
X72566287Y-110500500D01*
X72776243Y-110467246D01*
X72978412Y-110401557D01*
X73167816Y-110305051D01*
X73253243Y-110242985D01*
X73339786Y-110180109D01*
X73339788Y-110180106D01*
X73339792Y-110180104D01*
X73490104Y-110029792D01*
X73490106Y-110029788D01*
X73490109Y-110029786D01*
X73615048Y-109857820D01*
X73615047Y-109857820D01*
X73615051Y-109857816D01*
X73619514Y-109849054D01*
X73667488Y-109798259D01*
X73735308Y-109781463D01*
X73801444Y-109803999D01*
X73840486Y-109849056D01*
X73844951Y-109857820D01*
X73969890Y-110029786D01*
X73969896Y-110029792D01*
X74120208Y-110180104D01*
X74198384Y-110236902D01*
X74241051Y-110292231D01*
X74249500Y-110337220D01*
X74249500Y-111137770D01*
X74229815Y-111204809D01*
X74213181Y-111225451D01*
X72225451Y-113213181D01*
X72164128Y-113246666D01*
X72137770Y-113249500D01*
X61926080Y-113249500D01*
X61781092Y-113278340D01*
X61781086Y-113278342D01*
X61644508Y-113334914D01*
X61644496Y-113334921D01*
X61595269Y-113367813D01*
X61521588Y-113417044D01*
X61521580Y-113417050D01*
X54417048Y-120521583D01*
X54403701Y-120541560D01*
X54374455Y-120585331D01*
X54363530Y-120601682D01*
X54334916Y-120644504D01*
X54334912Y-120644511D01*
X54278343Y-120781082D01*
X54278340Y-120781092D01*
X54249500Y-120926079D01*
X54249500Y-120926082D01*
X54249500Y-127573918D01*
X54249500Y-127573920D01*
X54249499Y-127573920D01*
X53500500Y-127573920D01*
X53500500Y-81331947D01*
X58000000Y-81331947D01*
X58000000Y-81450000D01*
X58980385Y-81450000D01*
X58940889Y-81518409D01*
X58900000Y-81671009D01*
X58900000Y-81828991D01*
X58940889Y-81981591D01*
X58980385Y-82050000D01*
X58000000Y-82050000D01*
X58000000Y-82168052D01*
X58036934Y-82401247D01*
X58109897Y-82625802D01*
X58217085Y-82836171D01*
X58355866Y-83027186D01*
X58522813Y-83194133D01*
X58713828Y-83332914D01*
X58924195Y-83440102D01*
X59148744Y-83513063D01*
X59148750Y-83513065D01*
X59200000Y-83521182D01*
X59200000Y-82269614D01*
X59268409Y-82309111D01*
X59421009Y-82350000D01*
X59578991Y-82350000D01*
X59731591Y-82309111D01*
X59800000Y-82269614D01*
X59800000Y-83521181D01*
X59851249Y-83513065D01*
X59851255Y-83513063D01*
X60075804Y-83440102D01*
X60286171Y-83332914D01*
X60477186Y-83194133D01*
X60644133Y-83027186D01*
X60782914Y-82836171D01*
X60890102Y-82625802D01*
X60963065Y-82401247D01*
X61000000Y-82168052D01*
X61000000Y-82050000D01*
X60019615Y-82050000D01*
X60059111Y-81981591D01*
X60100000Y-81828991D01*
X60100000Y-81671009D01*
X60059111Y-81518409D01*
X60019615Y-81450000D01*
X61000000Y-81450000D01*
X61000000Y-81331947D01*
X60963065Y-81098752D01*
X60890102Y-80874197D01*
X60782914Y-80663828D01*
X60644133Y-80472813D01*
X60477186Y-80305866D01*
X60286171Y-80167085D01*
X60075802Y-80059897D01*
X59851247Y-79986934D01*
X59800000Y-79978817D01*
X59800000Y-81230385D01*
X59731591Y-81190889D01*
X59578991Y-81150000D01*
X59421009Y-81150000D01*
X59268409Y-81190889D01*
X59200000Y-81230385D01*
X59200000Y-79978817D01*
X59199999Y-79978817D01*
X59148752Y-79986934D01*
X58924197Y-80059897D01*
X58713828Y-80167085D01*
X58522813Y-80305866D01*
X58355866Y-80472813D01*
X58217085Y-80663828D01*
X58109897Y-80874197D01*
X58036934Y-81098752D01*
X58000000Y-81331947D01*
X53500500Y-81331947D01*
X53500500Y-75840506D01*
X54350000Y-75840506D01*
X54378317Y-76019293D01*
X54434251Y-76191444D01*
X54434252Y-76191447D01*
X54516434Y-76352734D01*
X54622823Y-76499169D01*
X54750830Y-76627176D01*
X54897265Y-76733565D01*
X55058552Y-76815747D01*
X55058558Y-76815749D01*
X55199999Y-76861705D01*
X55200000Y-76861704D01*
X55200000Y-75800000D01*
X54350000Y-75800000D01*
X54350000Y-75840506D01*
X53500500Y-75840506D01*
X53500500Y-75453922D01*
X55150000Y-75453922D01*
X55150000Y-75546078D01*
X55173852Y-75635095D01*
X55219930Y-75714905D01*
X55285095Y-75780070D01*
X55364905Y-75826148D01*
X55453922Y-75850000D01*
X55546078Y-75850000D01*
X55635095Y-75826148D01*
X55714905Y-75780070D01*
X55780070Y-75714905D01*
X55800000Y-75680384D01*
X55800000Y-76861705D01*
X55941441Y-76815749D01*
X55941447Y-76815747D01*
X56102734Y-76733565D01*
X56249167Y-76627177D01*
X56360187Y-76516157D01*
X56421510Y-76482672D01*
X56491202Y-76487656D01*
X56535550Y-76516157D01*
X56587636Y-76568243D01*
X56587641Y-76568247D01*
X56669270Y-76627553D01*
X56765978Y-76697815D01*
X56894375Y-76763237D01*
X56962393Y-76797895D01*
X56962396Y-76797896D01*
X57067221Y-76831955D01*
X57172049Y-76866015D01*
X57389778Y-76900500D01*
X57389779Y-76900500D01*
X57610221Y-76900500D01*
X57610222Y-76900500D01*
X57827951Y-76866015D01*
X58037606Y-76797895D01*
X58234022Y-76697815D01*
X58412365Y-76568242D01*
X58568242Y-76412365D01*
X58697815Y-76234022D01*
X58797895Y-76037606D01*
X58866015Y-75827951D01*
X58900500Y-75610222D01*
X58900500Y-75389778D01*
X58866015Y-75172049D01*
X58803845Y-74980706D01*
X58797896Y-74962396D01*
X58797895Y-74962393D01*
X58719509Y-74808555D01*
X58697815Y-74765978D01*
X58625181Y-74666005D01*
X58568247Y-74587641D01*
X58568243Y-74587636D01*
X58412363Y-74431756D01*
X58412358Y-74431752D01*
X58234025Y-74302187D01*
X58234024Y-74302186D01*
X58234022Y-74302185D01*
X58171096Y-74270122D01*
X58037606Y-74202104D01*
X58037603Y-74202103D01*
X57827952Y-74133985D01*
X57719086Y-74116742D01*
X57610222Y-74099500D01*
X57389778Y-74099500D01*
X57317201Y-74110995D01*
X57172047Y-74133985D01*
X56962396Y-74202103D01*
X56962393Y-74202104D01*
X56765974Y-74302187D01*
X56587638Y-74431754D01*
X56535548Y-74483843D01*
X56474224Y-74517327D01*
X56404532Y-74512341D01*
X56360187Y-74483841D01*
X56249169Y-74372823D01*
X56102734Y-74266434D01*
X55941449Y-74184254D01*
X55800000Y-74138294D01*
X55800000Y-75319615D01*
X55780070Y-75285095D01*
X55714905Y-75219930D01*
X55635095Y-75173852D01*
X55546078Y-75150000D01*
X55453922Y-75150000D01*
X55364905Y-75173852D01*
X55285095Y-75219930D01*
X55219930Y-75285095D01*
X55173852Y-75364905D01*
X55150000Y-75453922D01*
X53500500Y-75453922D01*
X53500500Y-75159493D01*
X54350000Y-75159493D01*
X54350000Y-75200000D01*
X55200000Y-75200000D01*
X55200000Y-74138294D01*
X55199999Y-74138294D01*
X55058550Y-74184254D01*
X54897265Y-74266434D01*
X54750830Y-74372823D01*
X54622823Y-74500830D01*
X54516434Y-74647265D01*
X54434252Y-74808552D01*
X54434251Y-74808555D01*
X54378317Y-74980706D01*
X54350000Y-75159493D01*
X53500500Y-75159493D01*
X53500500Y-68831947D01*
X58000000Y-68831947D01*
X58000000Y-68950000D01*
X58980385Y-68950000D01*
X58940889Y-69018409D01*
X58900000Y-69171009D01*
X58900000Y-69328991D01*
X58940889Y-69481591D01*
X58980385Y-69550000D01*
X58000000Y-69550000D01*
X58000000Y-69668052D01*
X58036934Y-69901247D01*
X58109897Y-70125802D01*
X58217085Y-70336171D01*
X58355866Y-70527186D01*
X58522813Y-70694133D01*
X58713828Y-70832914D01*
X58924195Y-70940102D01*
X59148744Y-71013063D01*
X59148750Y-71013065D01*
X59200000Y-71021182D01*
X59200000Y-69769614D01*
X59268409Y-69809111D01*
X59421009Y-69850000D01*
X59578991Y-69850000D01*
X59731591Y-69809111D01*
X59800000Y-69769614D01*
X59800000Y-71021181D01*
X59851249Y-71013065D01*
X59851255Y-71013063D01*
X60075804Y-70940102D01*
X60286171Y-70832914D01*
X60477186Y-70694133D01*
X60644133Y-70527186D01*
X60782914Y-70336171D01*
X60890102Y-70125802D01*
X60963065Y-69901247D01*
X61000000Y-69668052D01*
X61000000Y-69550000D01*
X60019615Y-69550000D01*
X60059111Y-69481591D01*
X60100000Y-69328991D01*
X60100000Y-69171009D01*
X60059111Y-69018409D01*
X60019615Y-68950000D01*
X61000000Y-68950000D01*
X61000000Y-68831947D01*
X60963065Y-68598752D01*
X60890102Y-68374197D01*
X60782914Y-68163828D01*
X60644133Y-67972813D01*
X60477186Y-67805866D01*
X60286171Y-67667085D01*
X60075802Y-67559897D01*
X59851247Y-67486934D01*
X59800000Y-67478817D01*
X59800000Y-68730385D01*
X59731591Y-68690889D01*
X59578991Y-68650000D01*
X59421009Y-68650000D01*
X59268409Y-68690889D01*
X59200000Y-68730385D01*
X59200000Y-67478817D01*
X59199999Y-67478817D01*
X59148752Y-67486934D01*
X58924197Y-67559897D01*
X58713828Y-67667085D01*
X58522813Y-67805866D01*
X58355866Y-67972813D01*
X58217085Y-68163828D01*
X58109897Y-68374197D01*
X58036934Y-68598752D01*
X58000000Y-68831947D01*
X53500500Y-68831947D01*
X53500500Y-65362332D01*
X54399500Y-65362332D01*
X54399500Y-65637667D01*
X54399501Y-65637684D01*
X54435438Y-65910655D01*
X54435439Y-65910660D01*
X54435440Y-65910666D01*
X54435441Y-65910668D01*
X54506704Y-66176630D01*
X54612075Y-66431017D01*
X54612080Y-66431028D01*
X54694861Y-66574407D01*
X54749751Y-66669479D01*
X54749753Y-66669482D01*
X54749754Y-66669483D01*
X54917370Y-66887926D01*
X54917376Y-66887933D01*
X55112066Y-67082623D01*
X55112072Y-67082628D01*
X55330521Y-67250249D01*
X55483778Y-67338732D01*
X55568971Y-67387919D01*
X55568976Y-67387921D01*
X55568979Y-67387923D01*
X55823368Y-67493295D01*
X56089334Y-67564560D01*
X56362326Y-67600500D01*
X56362333Y-67600500D01*
X56637667Y-67600500D01*
X56637674Y-67600500D01*
X56910666Y-67564560D01*
X57176632Y-67493295D01*
X57431021Y-67387923D01*
X57669479Y-67250249D01*
X57887928Y-67082628D01*
X58082628Y-66887928D01*
X58250249Y-66669479D01*
X58387923Y-66431021D01*
X58493295Y-66176632D01*
X58564560Y-65910666D01*
X58600500Y-65637674D01*
X58600500Y-65362332D01*
X91399500Y-65362332D01*
X91399500Y-65637667D01*
X91399501Y-65637684D01*
X91435438Y-65910655D01*
X91435439Y-65910660D01*
X91435440Y-65910666D01*
X91435441Y-65910668D01*
X91506704Y-66176630D01*
X91612075Y-66431017D01*
X91612080Y-66431028D01*
X91694861Y-66574407D01*
X91749751Y-66669479D01*
X91749753Y-66669482D01*
X91749754Y-66669483D01*
X91917370Y-66887926D01*
X91917376Y-66887933D01*
X92112066Y-67082623D01*
X92112072Y-67082628D01*
X92330521Y-67250249D01*
X92483778Y-67338732D01*
X92568971Y-67387919D01*
X92568976Y-67387921D01*
X92568979Y-67387923D01*
X92823368Y-67493295D01*
X93089334Y-67564560D01*
X93362326Y-67600500D01*
X93362333Y-67600500D01*
X93637667Y-67600500D01*
X93637674Y-67600500D01*
X93910666Y-67564560D01*
X94176632Y-67493295D01*
X94431021Y-67387923D01*
X94669479Y-67250249D01*
X94887928Y-67082628D01*
X95082628Y-66887928D01*
X95250249Y-66669479D01*
X95387923Y-66431021D01*
X95493295Y-66176632D01*
X95564560Y-65910666D01*
X95600500Y-65637674D01*
X95600500Y-65362326D01*
X95564560Y-65089334D01*
X95493295Y-64823368D01*
X95387923Y-64568979D01*
X95387921Y-64568976D01*
X95387919Y-64568971D01*
X95338732Y-64483778D01*
X95250249Y-64330521D01*
X95082628Y-64112072D01*
X95082623Y-64112066D01*
X94887933Y-63917376D01*
X94887926Y-63917370D01*
X94669483Y-63749754D01*
X94669482Y-63749753D01*
X94669479Y-63749751D01*
X94574407Y-63694861D01*
X94431028Y-63612080D01*
X94431017Y-63612075D01*
X94176630Y-63506704D01*
X94043649Y-63471072D01*
X93910666Y-63435440D01*
X93910660Y-63435439D01*
X93910655Y-63435438D01*
X93637684Y-63399501D01*
X93637679Y-63399500D01*
X93637674Y-63399500D01*
X93362326Y-63399500D01*
X93362320Y-63399500D01*
X93362315Y-63399501D01*
X93089344Y-63435438D01*
X93089337Y-63435439D01*
X93089334Y-63435440D01*
X93033125Y-63450500D01*
X92823369Y-63506704D01*
X92568982Y-63612075D01*
X92568971Y-63612080D01*
X92330516Y-63749754D01*
X92112073Y-63917370D01*
X92112066Y-63917376D01*
X91917376Y-64112066D01*
X91917370Y-64112073D01*
X91749754Y-64330516D01*
X91612080Y-64568971D01*
X91612075Y-64568982D01*
X91506704Y-64823369D01*
X91435441Y-65089331D01*
X91435438Y-65089344D01*
X91399501Y-65362315D01*
X91399500Y-65362332D01*
X58600500Y-65362332D01*
X58600500Y-65362326D01*
X58564560Y-65089334D01*
X58493295Y-64823368D01*
X58387923Y-64568979D01*
X58387921Y-64568976D01*
X58387919Y-64568971D01*
X58338732Y-64483778D01*
X58250249Y-64330521D01*
X58082628Y-64112072D01*
X58082623Y-64112066D01*
X57887933Y-63917376D01*
X57887926Y-63917370D01*
X57669483Y-63749754D01*
X57669482Y-63749753D01*
X57669479Y-63749751D01*
X57574407Y-63694861D01*
X57431028Y-63612080D01*
X57431017Y-63612075D01*
X57176630Y-63506704D01*
X57043649Y-63471072D01*
X56910666Y-63435440D01*
X56910660Y-63435439D01*
X56910655Y-63435438D01*
X56637684Y-63399501D01*
X56637679Y-63399500D01*
X56637674Y-63399500D01*
X56362326Y-63399500D01*
X56362320Y-63399500D01*
X56362315Y-63399501D01*
X56089344Y-63435438D01*
X56089337Y-63435439D01*
X56089334Y-63435440D01*
X56033125Y-63450500D01*
X55823369Y-63506704D01*
X55568982Y-63612075D01*
X55568971Y-63612080D01*
X55330516Y-63749754D01*
X55112073Y-63917370D01*
X55112066Y-63917376D01*
X54917376Y-64112066D01*
X54917370Y-64112073D01*
X54749754Y-64330516D01*
X54612080Y-64568971D01*
X54612075Y-64568982D01*
X54506704Y-64823369D01*
X54435441Y-65089331D01*
X54435438Y-65089344D01*
X54399501Y-65362315D01*
X54399500Y-65362332D01*
X53500500Y-65362332D01*
X53500500Y-62624500D01*
X53520185Y-62557461D01*
X53572989Y-62511706D01*
X53624500Y-62500500D01*
X96375500Y-62500500D01*
X96442539Y-62520185D01*
G37*
%TD.AperFunction*%
%TD*%
%TA.AperFunction,NonConductor*%
G36*
X76341444Y-120303999D02*
G01*
X76380486Y-120349056D01*
X76384951Y-120357820D01*
X76509890Y-120529786D01*
X76509896Y-120529792D01*
X76660208Y-120680104D01*
X76832184Y-120805051D01*
X76832188Y-120805053D01*
X76836126Y-120807914D01*
X76835146Y-120809262D01*
X76877160Y-120855690D01*
X76889500Y-120909617D01*
X76889500Y-121104069D01*
X76889500Y-121104071D01*
X76889499Y-121104071D01*
X76906542Y-121189744D01*
X76909511Y-121204669D01*
X76914499Y-121229744D01*
X76963535Y-121348127D01*
X77007999Y-121414673D01*
X77034726Y-121454673D01*
X77034727Y-121454674D01*
X78813181Y-123233127D01*
X78846666Y-123294450D01*
X78849500Y-123320808D01*
X78849500Y-123630192D01*
X78829815Y-123697231D01*
X78777011Y-123742986D01*
X78707853Y-123752930D01*
X78644297Y-123723905D01*
X78637819Y-123717873D01*
X75820429Y-120900483D01*
X75786944Y-120839160D01*
X75791928Y-120769468D01*
X75833800Y-120713535D01*
X75835226Y-120712483D01*
X75879788Y-120680107D01*
X75879788Y-120680106D01*
X75879792Y-120680104D01*
X76030104Y-120529792D01*
X76030106Y-120529788D01*
X76030109Y-120529786D01*
X76155048Y-120357820D01*
X76155047Y-120357820D01*
X76155051Y-120357816D01*
X76159514Y-120349054D01*
X76207488Y-120298259D01*
X76275308Y-120281463D01*
X76341444Y-120303999D01*
G37*
%TD.AperFunction*%
%TA.AperFunction,NonConductor*%
G36*
X78328265Y-86117202D02*
G01*
X78332147Y-86116644D01*
X78352805Y-86121447D01*
X78493757Y-86167246D01*
X78703713Y-86200500D01*
X78703714Y-86200500D01*
X78916286Y-86200500D01*
X78916287Y-86200500D01*
X79074136Y-86175499D01*
X79131055Y-86166484D01*
X79131315Y-86168126D01*
X79134453Y-86168283D01*
X79144185Y-86164654D01*
X79168753Y-86169998D01*
X79193863Y-86171254D01*
X79204121Y-86177692D01*
X79212458Y-86179506D01*
X79240712Y-86200657D01*
X79393181Y-86353126D01*
X79426666Y-86414449D01*
X79429500Y-86440807D01*
X79429500Y-87215287D01*
X79420062Y-87262734D01*
X79406420Y-87295672D01*
X79406418Y-87295678D01*
X79379500Y-87431004D01*
X79379500Y-87431007D01*
X79379500Y-87568993D01*
X79379500Y-87568995D01*
X79379499Y-87568995D01*
X79406418Y-87704322D01*
X79406420Y-87704328D01*
X79420061Y-87737260D01*
X79429500Y-87784713D01*
X79429500Y-107590382D01*
X79409815Y-107657421D01*
X79375408Y-107691099D01*
X79376125Y-107692085D01*
X79200213Y-107819890D01*
X79049890Y-107970213D01*
X78924949Y-108142182D01*
X78920484Y-108150946D01*
X78872509Y-108201742D01*
X78804688Y-108218536D01*
X78738553Y-108195998D01*
X78699516Y-108150946D01*
X78695050Y-108142182D01*
X78570109Y-107970213D01*
X78419786Y-107819890D01*
X78243875Y-107692085D01*
X78244851Y-107690740D01*
X78202834Y-107644295D01*
X78190500Y-107590382D01*
X78190500Y-89784713D01*
X78199939Y-89737260D01*
X78213580Y-89704328D01*
X78240500Y-89568993D01*
X78240500Y-89431007D01*
X78240500Y-89431004D01*
X78213581Y-89295678D01*
X78213580Y-89295672D01*
X78199937Y-89262734D01*
X78190500Y-89215287D01*
X78190500Y-86239382D01*
X78198425Y-86212391D01*
X78203223Y-86184670D01*
X78208137Y-86179314D01*
X78210185Y-86172343D01*
X78231439Y-86153925D01*
X78250467Y-86133194D01*
X78257497Y-86131346D01*
X78262989Y-86126588D01*
X78290833Y-86122584D01*
X78318042Y-86115433D01*
X78328265Y-86117202D01*
G37*
%TD.AperFunction*%
%TA.AperFunction,NonConductor*%
G36*
X75912812Y-86153942D02*
G01*
X75953757Y-86167246D01*
X76163713Y-86200500D01*
X76163714Y-86200500D01*
X76376286Y-86200500D01*
X76376287Y-86200500D01*
X76534136Y-86175499D01*
X76591055Y-86166484D01*
X76591315Y-86168126D01*
X76594453Y-86168283D01*
X76604185Y-86164654D01*
X76628753Y-86169998D01*
X76653863Y-86171254D01*
X76664121Y-86177692D01*
X76672458Y-86179506D01*
X76700712Y-86200657D01*
X76853181Y-86353126D01*
X76886666Y-86414449D01*
X76889500Y-86440807D01*
X76889500Y-89215287D01*
X76880062Y-89262734D01*
X76866420Y-89295672D01*
X76866418Y-89295678D01*
X76839500Y-89431004D01*
X76839500Y-89431007D01*
X76839500Y-89568993D01*
X76839500Y-89568995D01*
X76839499Y-89568995D01*
X76866418Y-89704322D01*
X76866420Y-89704328D01*
X76880061Y-89737260D01*
X76889500Y-89784713D01*
X76889500Y-107590382D01*
X76869815Y-107657421D01*
X76835408Y-107691099D01*
X76836125Y-107692085D01*
X76660213Y-107819890D01*
X76509890Y-107970213D01*
X76384949Y-108142182D01*
X76380484Y-108150946D01*
X76332509Y-108201742D01*
X76264688Y-108218536D01*
X76198553Y-108195998D01*
X76159516Y-108150946D01*
X76155050Y-108142182D01*
X76030109Y-107970213D01*
X75879794Y-107819898D01*
X75879788Y-107819893D01*
X75801615Y-107763097D01*
X75758949Y-107707767D01*
X75750500Y-107662779D01*
X75750500Y-86271874D01*
X75770185Y-86204835D01*
X75822989Y-86159080D01*
X75892147Y-86149136D01*
X75912812Y-86153942D01*
G37*
%TD.AperFunction*%
M02*
